SplineFontDB: 3.2
FontName: Nintendo-DS-BIOS-vasified
FullName: Nintendo DS BIOS Vasified Regular
FamilyName: Nintendo DS BIOS Vasified
Weight: Book
Copyright: Copyright David Fens 2013
Version: 1.1
ItalicAngle: 0
UnderlinePosition: 77
UnderlineWidth: 51
Ascent: 819
Descent: 205
InvalidEm: 0
sfntRevision: 0x00010000
LayerCount: 2
Layer: 0 1 "Back" 1
Layer: 1 1 "Fore" 0
XUID: [1021 781 -254117738 5198741]
StyleMap: 0x0040
FSType: 4
OS2Version: 2
OS2_WeightWidthSlopeOnly: 0
OS2_UseTypoMetrics: 0
CreationTime: 1379761891
ModificationTime: 1585226171
PfmFamily: 81
TTFWeight: 400
TTFWidth: 5
LineGap: 0
VLineGap: 0
Panose: 0 0 4 0 0 0 0 0 0 0
OS2TypoAscent: 576
OS2TypoAOffset: 0
OS2TypoDescent: -64
OS2TypoDOffset: 0
OS2TypoLinegap: 0
OS2WinAscent: 704
OS2WinAOffset: 0
OS2WinDescent: 64
OS2WinDOffset: 0
HheadAscent: 704
HheadAOffset: 0
HheadDescent: -64
HheadDOffset: 0
OS2SubXSize: 512
OS2SubYSize: 512
OS2SubXOff: 0
OS2SubYOff: -32
OS2SupXSize: 512
OS2SupYSize: 512
OS2SupXOff: 0
OS2SupYOff: 512
OS2StrikeYSize: 51
OS2StrikeYPos: 204
OS2CapHeight: 576
OS2XHeight: 384
OS2Vendor: 'FSTR'
OS2CodePages: 00000193.00000000
OS2UnicodeRanges: 80000003.0000000a.00000000.00000000
MarkAttachClasses: 1
DEI: 91125
TtTable: prep
PUSHW_1
 511
SCANCTRL
PUSHB_1
 1
SCANTYPE
SVTCA[y-axis]
MPPEM
PUSHB_1
 8
LT
IF
PUSHB_2
 1
 1
INSTCTRL
EIF
PUSHB_2
 70
 6
CALL
IF
POP
PUSHB_1
 16
EIF
MPPEM
PUSHB_1
 20
GT
IF
POP
PUSHB_1
 128
EIF
SCVTCI
PUSHB_1
 6
CALL
NOT
IF
EIF
PUSHB_1
 20
CALL
EndTTInstrs
TtTable: fpgm
PUSHB_1
 0
FDEF
PUSHB_1
 0
SZP0
MPPEM
PUSHB_1
 42
LT
IF
PUSHB_1
 74
SROUND
EIF
PUSHB_1
 0
SWAP
MIAP[rnd]
RTG
PUSHB_1
 6
CALL
IF
RTDG
EIF
MPPEM
PUSHB_1
 42
LT
IF
RDTG
EIF
DUP
MDRP[rp0,rnd,grey]
PUSHB_1
 1
SZP0
MDAP[no-rnd]
RTG
ENDF
PUSHB_1
 1
FDEF
DUP
MDRP[rp0,min,white]
PUSHB_1
 12
CALL
ENDF
PUSHB_1
 2
FDEF
MPPEM
GT
IF
RCVT
SWAP
EIF
POP
ENDF
PUSHB_1
 3
FDEF
ROUND[Black]
RTG
DUP
PUSHB_1
 64
LT
IF
POP
PUSHB_1
 64
EIF
ENDF
PUSHB_1
 4
FDEF
PUSHB_1
 6
CALL
IF
POP
SWAP
POP
ROFF
IF
MDRP[rp0,min,rnd,black]

StartChar: .notdef
Encoding: 65536 -1 0
Width: 12
Flags: W
LayerCount: 2
Fore
SplineSet
288 81 m 1,0,-1
 288 173 l 1,1,-1
 196 173 l 1,2,-1
 196 81 l 1,3,-1
 288 81 l 1,0,-1
379 188 m 1,4,-1
 379 280 l 1,5,-1
 196 280 l 1,6,-1
 196 188 l 1,7,-1
 379 188 l 1,4,-1
288 295 m 1,8,-1
 288 387 l 1,9,-1
 196 387 l 1,10,-1
 196 295 l 1,11,-1
 288 295 l 1,8,-1
379 402 m 1,12,-1
 379 493 l 1,13,-1
 288 493 l 2,14,15
 249 493 249 493 223 467 c 0,16,17
 196 440 196 440 196 402 c 1,18,-1
 379 402 l 1,12,-1
0 0 m 1,19,-1
 0 576 l 1,20,-1
 576 576 l 1,21,-1
 576 0 l 1,22,-1
 0 0 l 1,19,-1
EndSplineSet
EndChar

StartChar: exclam
Encoding: 33 33 4
Width: 140
Flags: W
LayerCount: 2
Fore
SplineSet
0 0 m 1,0,-1
 0 128 l 1,1,-1
 64 128 l 1,2,-1
 64 0 l 1,3,-1
 0 0 l 1,0,-1
0 192 m 1,4,-1
 0 576 l 1,5,-1
 64 576 l 1,6,-1
 64 192 l 1,7,-1
 0 192 l 1,4,-1
EndSplineSet
EndChar

StartChar: quotedbl
Encoding: 34 34 5
Width: 268
Flags: W
LayerCount: 2
Fore
SplineSet
0 448 m 1,0,-1
 0 576 l 1,1,-1
 64 576 l 1,2,-1
 64 448 l 1,3,-1
 0 448 l 1,0,-1
128 448 m 1,4,-1
 128 576 l 1,5,-1
 192 576 l 1,6,-1
 192 448 l 1,7,-1
 128 448 l 1,4,-1
EndSplineSet
EndChar

StartChar: numbersign
Encoding: 35 35 6
Width: 524
Flags: W
LayerCount: 2
Fore
SplineSet
256 192 m 1,0,-1
 256 384 l 1,1,-1
 192 384 l 1,2,-1
 192 192 l 1,3,-1
 256 192 l 1,0,-1
64 0 m 1,4,-1
 64 128 l 1,5,-1
 0 128 l 1,6,-1
 0 192 l 1,7,-1
 128 192 l 1,8,-1
 128 384 l 1,9,-1
 64 384 l 1,10,-1
 64 448 l 1,11,-1
 192 448 l 1,12,-1
 192 576 l 1,13,-1
 256 576 l 1,14,-1
 256 448 l 1,15,-1
 320 448 l 1,16,-1
 320 576 l 1,17,-1
 384 576 l 1,18,-1
 384 448 l 1,19,-1
 448 448 l 1,20,-1
 448 384 l 1,21,-1
 320 384 l 1,22,-1
 320 192 l 1,23,-1
 384 192 l 1,24,-1
 384 128 l 1,25,-1
 256 128 l 1,26,-1
 256 0 l 1,27,-1
 192 0 l 1,28,-1
 192 128 l 1,29,-1
 128 128 l 1,30,-1
 128 0 l 1,31,-1
 64 0 l 1,4,-1
EndSplineSet
EndChar

StartChar: dollar
Encoding: 36 36 7
Width: 396
Flags: W
LayerCount: 2
Fore
SplineSet
0 128 m 1,0,-1
 0 192 l 1,1,-1
 64 192 l 1,2,-1
 64 128 l 1,3,-1
 0 128 l 1,0,-1
256 128 m 1,4,-1
 256 256 l 1,5,-1
 320 256 l 1,6,-1
 320 128 l 1,7,-1
 256 128 l 1,4,-1
0 320 m 1,8,-1
 0 448 l 1,9,-1
 64 448 l 1,10,-1
 64 320 l 1,11,-1
 0 320 l 1,8,-1
256 384 m 1,12,-1
 256 448 l 1,13,-1
 320 448 l 1,14,-1
 320 384 l 1,15,-1
 256 384 l 1,12,-1
128 0 m 1,16,-1
 128 64 l 1,17,-1
 64 64 l 1,18,-1
 64 128 l 1,19,-1
 128 128 l 1,20,-1
 128 256 l 1,21,-1
 64 256 l 1,22,-1
 64 320 l 1,23,-1
 128 320 l 1,24,-1
 128 448 l 1,25,-1
 64 448 l 1,26,-1
 64 512 l 1,27,-1
 128 512 l 1,28,-1
 128 576 l 1,29,-1
 192 576 l 1,30,-1
 192 512 l 1,31,-1
 256 512 l 1,32,-1
 256 448 l 1,33,-1
 192 448 l 1,34,-1
 192 320 l 1,35,-1
 256 320 l 1,36,-1
 256 256 l 1,37,-1
 192 256 l 1,38,-1
 192 128 l 1,39,-1
 256 128 l 1,40,-1
 256 64 l 1,41,-1
 192 64 l 1,42,-1
 192 0 l 1,43,-1
 128 0 l 1,16,-1
EndSplineSet
EndChar

StartChar: percent
Encoding: 37 37 8
Width: 524
Flags: W
LayerCount: 2
Fore
SplineSet
320 0 m 1,0,-1
 320 64 l 1,1,-1
 384 64 l 1,2,-1
 384 0 l 1,3,-1
 320 0 l 1,0,-1
64 0 m 1,4,-1
 64 128 l 1,5,-1
 128 128 l 1,6,-1
 128 0 l 1,7,-1
 64 0 l 1,4,-1
256 64 m 1,8,-1
 256 192 l 1,9,-1
 320 192 l 1,10,-1
 320 64 l 1,11,-1
 256 64 l 1,8,-1
384 64 m 1,12,-1
 384 192 l 1,13,-1
 448 192 l 1,14,-1
 448 64 l 1,15,-1
 384 64 l 1,12,-1
128 128 m 1,16,-1
 128 256 l 1,17,-1
 192 256 l 1,18,-1
 192 128 l 1,19,-1
 128 128 l 1,16,-1
320 192 m 1,20,-1
 320 256 l 1,21,-1
 384 256 l 1,22,-1
 384 192 l 1,23,-1
 320 192 l 1,20,-1
192 256 m 1,24,-1
 192 320 l 1,25,-1
 256 320 l 1,26,-1
 256 256 l 1,27,-1
 192 256 l 1,24,-1
64 320 m 1,28,-1
 64 384 l 1,29,-1
 128 384 l 1,30,-1
 128 320 l 1,31,-1
 64 320 l 1,28,-1
256 320 m 1,32,-1
 256 448 l 1,33,-1
 320 448 l 1,34,-1
 320 320 l 1,35,-1
 256 320 l 1,32,-1
0 384 m 1,36,-1
 0 512 l 1,37,-1
 64 512 l 1,38,-1
 64 384 l 1,39,-1
 0 384 l 1,36,-1
128 384 m 1,40,-1
 128 512 l 1,41,-1
 192 512 l 1,42,-1
 192 384 l 1,43,-1
 128 384 l 1,40,-1
64 512 m 1,44,-1
 64 576 l 1,45,-1
 128 576 l 1,46,-1
 128 512 l 1,47,-1
 64 512 l 1,44,-1
320 448 m 1,48,-1
 320 576 l 1,49,-1
 384 576 l 1,50,-1
 384 448 l 1,51,-1
 320 448 l 1,48,-1
EndSplineSet
EndChar

StartChar: ampersand
Encoding: 38 38 9
Width: 460
Flags: W
LayerCount: 2
Fore
SplineSet
64 0 m 1,0,-1
 64 64 l 1,1,-1
 256 64 l 1,2,-1
 256 0 l 1,3,-1
 64 0 l 1,0,-1
320 0 m 1,4,-1
 320 64 l 1,5,-1
 384 64 l 1,6,-1
 384 0 l 1,7,-1
 320 0 l 1,4,-1
0 64 m 1,8,-1
 0 192 l 1,9,-1
 64 192 l 1,10,-1
 64 64 l 1,11,-1
 0 64 l 1,8,-1
256 64 m 1,12,-1
 256 192 l 1,13,-1
 320 192 l 1,14,-1
 320 64 l 1,15,-1
 256 64 l 1,12,-1
64 192 m 1,16,-1
 64 256 l 1,17,-1
 128 256 l 1,18,-1
 128 192 l 1,19,-1
 64 192 l 1,16,-1
192 192 m 1,20,-1
 192 256 l 1,21,-1
 256 256 l 1,22,-1
 256 192 l 1,23,-1
 192 192 l 1,20,-1
320 192 m 1,24,-1
 320 256 l 1,25,-1
 384 256 l 1,26,-1
 384 192 l 1,27,-1
 320 192 l 1,24,-1
128 256 m 1,28,-1
 128 320 l 1,29,-1
 192 320 l 1,30,-1
 192 256 l 1,31,-1
 128 256 l 1,28,-1
64 320 m 1,32,-1
 64 512 l 1,33,-1
 128 512 l 1,34,-1
 128 320 l 1,35,-1
 64 320 l 1,32,-1
192 320 m 1,36,-1
 192 512 l 1,37,-1
 256 512 l 1,38,-1
 256 320 l 1,39,-1
 192 320 l 1,36,-1
128 512 m 1,40,-1
 128 576 l 1,41,-1
 192 576 l 1,42,-1
 192 512 l 1,43,-1
 128 512 l 1,40,-1
EndSplineSet
EndChar

StartChar: quotesingle
Encoding: 39 39 10
Width: 140
Flags: W
LayerCount: 2
Fore
SplineSet
0 448 m 1,0,-1
 0 576 l 1,1,-1
 64 576 l 1,2,-1
 64 448 l 1,3,-1
 0 448 l 1,0,-1
EndSplineSet
EndChar

StartChar: parenleft
Encoding: 40 40 11
Width: 268
Flags: W
LayerCount: 2
Fore
SplineSet
128 0 m 1,0,-1
 128 64 l 1,1,-1
 192 64 l 1,2,-1
 192 0 l 1,3,-1
 128 0 l 1,0,-1
64 64 m 1,4,-1
 64 192 l 1,5,-1
 128 192 l 1,6,-1
 128 64 l 1,7,-1
 64 64 l 1,4,-1
0 192 m 1,8,-1
 0 384 l 1,9,-1
 64 384 l 1,10,-1
 64 192 l 1,11,-1
 0 192 l 1,8,-1
64 384 m 1,12,-1
 64 512 l 1,13,-1
 128 512 l 1,14,-1
 128 384 l 1,15,-1
 64 384 l 1,12,-1
128 512 m 1,16,-1
 128 576 l 1,17,-1
 192 576 l 1,18,-1
 192 512 l 1,19,-1
 128 512 l 1,16,-1
EndSplineSet
EndChar

StartChar: parenright
Encoding: 41 41 12
Width: 268
Flags: W
LayerCount: 2
Fore
SplineSet
0 0 m 1,0,-1
 0 64 l 1,1,-1
 64 64 l 1,2,-1
 64 0 l 1,3,-1
 0 0 l 1,0,-1
64 64 m 1,4,-1
 64 192 l 1,5,-1
 128 192 l 1,6,-1
 128 64 l 1,7,-1
 64 64 l 1,4,-1
128 192 m 1,8,-1
 128 384 l 1,9,-1
 192 384 l 1,10,-1
 192 192 l 1,11,-1
 128 192 l 1,8,-1
64 384 m 1,12,-1
 64 512 l 1,13,-1
 128 512 l 1,14,-1
 128 384 l 1,15,-1
 64 384 l 1,12,-1
0 512 m 1,16,-1
 0 576 l 1,17,-1
 64 576 l 1,18,-1
 64 512 l 1,19,-1
 0 512 l 1,16,-1
EndSplineSet
EndChar

StartChar: asterisk
Encoding: 42 42 13
Width: 524
Flags: W
LayerCount: 2
Fore
SplineSet
0 64 m 1,0,-1
 0 128 l 1,1,-1
 64 128 l 1,2,-1
 64 64 l 1,3,-1
 0 64 l 1,0,-1
384 64 m 1,4,-1
 384 128 l 1,5,-1
 448 128 l 1,6,-1
 448 64 l 1,7,-1
 384 64 l 1,4,-1
64 128 m 1,8,-1
 64 192 l 1,9,-1
 128 192 l 1,10,-1
 128 128 l 1,11,-1
 64 128 l 1,8,-1
320 128 m 1,12,-1
 320 192 l 1,13,-1
 384 192 l 1,14,-1
 384 128 l 1,15,-1
 320 128 l 1,12,-1
64 256 m 1,16,-1
 64 320 l 1,17,-1
 128 320 l 1,18,-1
 128 256 l 1,19,-1
 64 256 l 1,16,-1
320 256 m 1,20,-1
 320 320 l 1,21,-1
 384 320 l 1,22,-1
 384 256 l 1,23,-1
 320 256 l 1,20,-1
0 320 m 1,24,-1
 0 384 l 1,25,-1
 64 384 l 1,26,-1
 64 320 l 1,27,-1
 0 320 l 1,24,-1
384 320 m 1,28,-1
 384 384 l 1,29,-1
 448 384 l 1,30,-1
 448 320 l 1,31,-1
 384 320 l 1,28,-1
192 0 m 1,32,-1
 192 192 l 1,33,-1
 128 192 l 1,34,-1
 128 256 l 1,35,-1
 192 256 l 1,36,-1
 192 448 l 1,37,-1
 256 448 l 1,38,-1
 256 256 l 1,39,-1
 320 256 l 1,40,-1
 320 192 l 1,41,-1
 256 192 l 1,42,-1
 256 0 l 1,43,-1
 192 0 l 1,32,-1
EndSplineSet
EndChar

StartChar: plus
Encoding: 43 43 14
Width: 396
Flags: W
LayerCount: 2
Fore
SplineSet
128 64 m 1,0,-1
 128 192 l 1,1,-1
 0 192 l 1,2,-1
 0 256 l 1,3,-1
 128 256 l 1,4,-1
 128 384 l 1,5,-1
 192 384 l 1,6,-1
 192 256 l 1,7,-1
 320 256 l 1,8,-1
 320 192 l 1,9,-1
 192 192 l 1,10,-1
 192 64 l 1,11,-1
 128 64 l 1,0,-1
EndSplineSet
EndChar

StartChar: comma
Encoding: 44 44 15
Width: 204
Flags: W
LayerCount: 2
Fore
SplineSet
0 -64 m 1,0,-1
 0 0 l 1,1,-1
 64 0 l 1,2,-1
 64 -64 l 1,3,-1
 0 -64 l 1,0,-1
64 0 m 1,4,-1
 64 64 l 1,5,-1
 128 64 l 1,6,-1
 128 0 l 1,7,-1
 64 0 l 1,4,-1
EndSplineSet
EndChar

StartChar: hyphen
Encoding: 45 45 16
Width: 396
Flags: W
LayerCount: 2
Fore
SplineSet
0 192 m 1,0,-1
 0 256 l 1,1,-1
 320 256 l 1,2,-1
 320 192 l 1,3,-1
 0 192 l 1,0,-1
EndSplineSet
EndChar

StartChar: period
Encoding: 46 46 17
Width: 140
Flags: W
LayerCount: 2
Fore
SplineSet
0 0 m 1,0,-1
 0 64 l 1,1,-1
 64 64 l 1,2,-1
 64 0 l 1,3,-1
 0 0 l 1,0,-1
EndSplineSet
EndChar

StartChar: slash
Encoding: 47 47 18
Width: 268
Flags: W
LayerCount: 2
Fore
SplineSet
0 0 m 1,0,-1
 0 192 l 1,1,-1
 64 192 l 1,2,-1
 64 0 l 1,3,-1
 0 0 l 1,0,-1
64 192 m 1,4,-1
 64 384 l 1,5,-1
 128 384 l 1,6,-1
 128 192 l 1,7,-1
 64 192 l 1,4,-1
128 384 m 1,8,-1
 128 576 l 1,9,-1
 192 576 l 1,10,-1
 192 384 l 1,11,-1
 128 384 l 1,8,-1
EndSplineSet
EndChar

StartChar: zero
Encoding: 48 48 19
Width: 396
Flags: W
LayerCount: 2
Fore
SplineSet
64 0 m 1,0,-1
 64 64 l 1,1,-1
 256 64 l 1,2,-1
 256 0 l 1,3,-1
 64 0 l 1,0,-1
128 256 m 1,4,-1
 128 320 l 1,5,-1
 192 320 l 1,6,-1
 192 256 l 1,7,-1
 128 256 l 1,4,-1
0 64 m 1,8,-1
 0 512 l 1,9,-1
 64 512 l 1,10,-1
 64 256 l 1,11,-1
 128 256 l 1,12,-1
 128 128 l 1,13,-1
 64 128 l 1,14,-1
 64 64 l 1,15,-1
 0 64 l 1,8,-1
256 64 m 1,16,-1
 256 320 l 1,17,-1
 192 320 l 1,18,-1
 192 448 l 1,19,-1
 256 448 l 1,20,-1
 256 512 l 1,21,-1
 320 512 l 1,22,-1
 320 64 l 1,23,-1
 256 64 l 1,16,-1
64 512 m 1,24,-1
 64 576 l 1,25,-1
 256 576 l 1,26,-1
 256 512 l 1,27,-1
 64 512 l 1,24,-1
EndSplineSet
EndChar

StartChar: one
Encoding: 49 49 20
Width: 204
Flags: W
LayerCount: 2
Fore
SplineSet
64 0 m 1,0,-1
 64 512 l 1,1,-1
 0 512 l 1,2,-1
 0 576 l 1,3,-1
 128 576 l 1,4,-1
 128 0 l 1,5,-1
 64 0 l 1,0,-1
EndSplineSet
EndChar

StartChar: two
Encoding: 50 50 21
Width: 396
Flags: W
LayerCount: 2
Fore
SplineSet
0 0 m 1,0,-1
 0 256 l 1,1,-1
 64 256 l 1,2,-1
 64 64 l 1,3,-1
 320 64 l 1,4,-1
 320 0 l 1,5,-1
 0 0 l 1,0,-1
64 256 m 1,6,-1
 64 320 l 1,7,-1
 256 320 l 1,8,-1
 256 256 l 1,9,-1
 64 256 l 1,6,-1
256 320 m 1,10,-1
 256 512 l 1,11,-1
 320 512 l 1,12,-1
 320 320 l 1,13,-1
 256 320 l 1,10,-1
0 512 m 1,14,-1
 0 576 l 1,15,-1
 256 576 l 1,16,-1
 256 512 l 1,17,-1
 0 512 l 1,14,-1
EndSplineSet
EndChar

StartChar: three
Encoding: 51 51 22
Width: 396
Flags: W
LayerCount: 2
Fore
SplineSet
0 0 m 1,0,-1
 0 64 l 1,1,-1
 256 64 l 1,2,-1
 256 0 l 1,3,-1
 0 0 l 1,0,-1
256 64 m 1,4,-1
 256 256 l 1,5,-1
 320 256 l 1,6,-1
 320 64 l 1,7,-1
 256 64 l 1,4,-1
64 256 m 1,8,-1
 64 320 l 1,9,-1
 256 320 l 1,10,-1
 256 256 l 1,11,-1
 64 256 l 1,8,-1
256 320 m 1,12,-1
 256 512 l 1,13,-1
 320 512 l 1,14,-1
 320 320 l 1,15,-1
 256 320 l 1,12,-1
0 512 m 1,16,-1
 0 576 l 1,17,-1
 256 576 l 1,18,-1
 256 512 l 1,19,-1
 0 512 l 1,16,-1
EndSplineSet
EndChar

StartChar: four
Encoding: 52 52 23
Width: 460
Flags: W
LayerCount: 2
Fore
SplineSet
0 256 m 1,0,-1
 0 576 l 1,1,-1
 64 576 l 1,2,-1
 64 256 l 1,3,-1
 0 256 l 1,0,-1
256 0 m 1,4,-1
 256 192 l 1,5,-1
 64 192 l 1,6,-1
 64 256 l 1,7,-1
 256 256 l 1,8,-1
 256 576 l 1,9,-1
 320 576 l 1,10,-1
 320 256 l 1,11,-1
 384 256 l 1,12,-1
 384 192 l 1,13,-1
 320 192 l 1,14,-1
 320 0 l 1,15,-1
 256 0 l 1,4,-1
EndSplineSet
EndChar

StartChar: five
Encoding: 53 53 24
Width: 396
Flags: W
LayerCount: 2
Fore
SplineSet
0 0 m 1,0,-1
 0 64 l 1,1,-1
 256 64 l 1,2,-1
 256 0 l 1,3,-1
 0 0 l 1,0,-1
256 64 m 1,4,-1
 256 256 l 1,5,-1
 320 256 l 1,6,-1
 320 64 l 1,7,-1
 256 64 l 1,4,-1
0 256 m 1,8,-1
 0 576 l 1,9,-1
 320 576 l 1,10,-1
 320 512 l 1,11,-1
 64 512 l 1,12,-1
 64 320 l 1,13,-1
 256 320 l 1,14,-1
 256 256 l 1,15,-1
 0 256 l 1,8,-1
EndSplineSet
EndChar

StartChar: six
Encoding: 54 54 25
Width: 396
Flags: W
LayerCount: 2
Fore
SplineSet
64 0 m 1,0,-1
 64 64 l 1,1,-1
 256 64 l 1,2,-1
 256 0 l 1,3,-1
 64 0 l 1,0,-1
256 64 m 1,4,-1
 256 256 l 1,5,-1
 320 256 l 1,6,-1
 320 64 l 1,7,-1
 256 64 l 1,4,-1
0 64 m 1,8,-1
 0 512 l 1,9,-1
 64 512 l 1,10,-1
 64 320 l 1,11,-1
 256 320 l 1,12,-1
 256 256 l 1,13,-1
 64 256 l 1,14,-1
 64 64 l 1,15,-1
 0 64 l 1,8,-1
64 512 m 1,16,-1
 64 576 l 1,17,-1
 256 576 l 1,18,-1
 256 512 l 1,19,-1
 64 512 l 1,16,-1
EndSplineSet
EndChar

StartChar: seven
Encoding: 55 55 26
Width: 396
Flags: W
LayerCount: 2
Fore
SplineSet
128 0 m 1,0,-1
 128 320 l 1,1,-1
 192 320 l 1,2,-1
 192 0 l 1,3,-1
 128 0 l 1,0,-1
192 320 m 1,4,-1
 192 384 l 1,5,-1
 256 384 l 1,6,-1
 256 320 l 1,7,-1
 192 320 l 1,4,-1
256 384 m 1,8,-1
 256 512 l 1,9,-1
 0 512 l 1,10,-1
 0 576 l 1,11,-1
 320 576 l 1,12,-1
 320 384 l 1,13,-1
 256 384 l 1,8,-1
EndSplineSet
EndChar

StartChar: eight
Encoding: 56 56 27
Width: 396
Flags: W
LayerCount: 2
Fore
SplineSet
64 0 m 1,0,-1
 64 64 l 1,1,-1
 256 64 l 1,2,-1
 256 0 l 1,3,-1
 64 0 l 1,0,-1
0 64 m 1,4,-1
 0 256 l 1,5,-1
 64 256 l 1,6,-1
 64 64 l 1,7,-1
 0 64 l 1,4,-1
256 64 m 1,8,-1
 256 256 l 1,9,-1
 320 256 l 1,10,-1
 320 64 l 1,11,-1
 256 64 l 1,8,-1
64 256 m 1,12,-1
 64 320 l 1,13,-1
 256 320 l 1,14,-1
 256 256 l 1,15,-1
 64 256 l 1,12,-1
0 320 m 1,16,-1
 0 512 l 1,17,-1
 64 512 l 1,18,-1
 64 320 l 1,19,-1
 0 320 l 1,16,-1
256 320 m 1,20,-1
 256 512 l 1,21,-1
 320 512 l 1,22,-1
 320 320 l 1,23,-1
 256 320 l 1,20,-1
64 512 m 1,24,-1
 64 576 l 1,25,-1
 256 576 l 1,26,-1
 256 512 l 1,27,-1
 64 512 l 1,24,-1
EndSplineSet
EndChar

StartChar: nine
Encoding: 57 57 28
Width: 396
Flags: W
LayerCount: 2
Fore
SplineSet
64 0 m 1,0,-1
 64 64 l 1,1,-1
 256 64 l 1,2,-1
 256 0 l 1,3,-1
 64 0 l 1,0,-1
0 320 m 1,4,-1
 0 512 l 1,5,-1
 64 512 l 1,6,-1
 64 320 l 1,7,-1
 0 320 l 1,4,-1
256 64 m 1,8,-1
 256 256 l 1,9,-1
 64 256 l 1,10,-1
 64 320 l 1,11,-1
 256 320 l 1,12,-1
 256 512 l 1,13,-1
 320 512 l 1,14,-1
 320 64 l 1,15,-1
 256 64 l 1,8,-1
64 512 m 1,16,-1
 64 576 l 1,17,-1
 256 576 l 1,18,-1
 256 512 l 1,19,-1
 64 512 l 1,16,-1
EndSplineSet
EndChar

StartChar: colon
Encoding: 58 58 29
Width: 140
Flags: W
LayerCount: 2
Fore
SplineSet
0 128 m 1,0,-1
 0 192 l 1,1,-1
 64 192 l 1,2,-1
 64 128 l 1,3,-1
 0 128 l 1,0,-1
0 384 m 1,4,-1
 0 448 l 1,5,-1
 64 448 l 1,6,-1
 64 384 l 1,7,-1
 0 384 l 1,4,-1
EndSplineSet
EndChar

StartChar: semicolon
Encoding: 59 59 30
Width: 204
Flags: W
LayerCount: 2
Fore
SplineSet
0 64 m 1,0,-1
 0 128 l 1,1,-1
 64 128 l 1,2,-1
 64 64 l 1,3,-1
 0 64 l 1,0,-1
64 128 m 1,4,-1
 64 192 l 1,5,-1
 128 192 l 1,6,-1
 128 128 l 1,7,-1
 64 128 l 1,4,-1
64 384 m 1,8,-1
 64 448 l 1,9,-1
 128 448 l 1,10,-1
 128 384 l 1,11,-1
 64 384 l 1,8,-1
EndSplineSet
EndChar

StartChar: less
Encoding: 60 60 31
Width: 268
Flags: W
LayerCount: 2
Fore
SplineSet
128 128 m 1,0,-1
 128 192 l 1,1,-1
 192 192 l 1,2,-1
 192 128 l 1,3,-1
 128 128 l 1,0,-1
64 192 m 1,4,-1
 64 256 l 1,5,-1
 128 256 l 1,6,-1
 128 192 l 1,7,-1
 64 192 l 1,4,-1
0 256 m 1,8,-1
 0 320 l 1,9,-1
 64 320 l 1,10,-1
 64 256 l 1,11,-1
 0 256 l 1,8,-1
64 320 m 1,12,-1
 64 384 l 1,13,-1
 128 384 l 1,14,-1
 128 320 l 1,15,-1
 64 320 l 1,12,-1
128 384 m 1,16,-1
 128 448 l 1,17,-1
 192 448 l 1,18,-1
 192 384 l 1,19,-1
 128 384 l 1,16,-1
EndSplineSet
EndChar

StartChar: equal
Encoding: 61 61 32
Width: 396
Flags: W
LayerCount: 2
Fore
SplineSet
0 192 m 1,0,-1
 0 256 l 1,1,-1
 320 256 l 1,2,-1
 320 192 l 1,3,-1
 0 192 l 1,0,-1
0 320 m 1,4,-1
 0 384 l 1,5,-1
 320 384 l 1,6,-1
 320 320 l 1,7,-1
 0 320 l 1,4,-1
EndSplineSet
EndChar

StartChar: greater
Encoding: 62 62 33
Width: 268
Flags: W
LayerCount: 2
Fore
SplineSet
0 128 m 1,0,-1
 0 192 l 1,1,-1
 64 192 l 1,2,-1
 64 128 l 1,3,-1
 0 128 l 1,0,-1
64 192 m 1,4,-1
 64 256 l 1,5,-1
 128 256 l 1,6,-1
 128 192 l 1,7,-1
 64 192 l 1,4,-1
128 256 m 1,8,-1
 128 320 l 1,9,-1
 192 320 l 1,10,-1
 192 256 l 1,11,-1
 128 256 l 1,8,-1
64 320 m 1,12,-1
 64 384 l 1,13,-1
 128 384 l 1,14,-1
 128 320 l 1,15,-1
 64 320 l 1,12,-1
0 384 m 1,16,-1
 0 448 l 1,17,-1
 64 448 l 1,18,-1
 64 384 l 1,19,-1
 0 384 l 1,16,-1
EndSplineSet
EndChar

StartChar: question
Encoding: 63 63 34
Width: 332
Flags: W
LayerCount: 2
Fore
SplineSet
64 0 m 1,0,-1
 64 128 l 1,1,-1
 128 128 l 1,2,-1
 128 0 l 1,3,-1
 64 0 l 1,0,-1
64 192 m 1,4,-1
 64 320 l 1,5,-1
 128 320 l 1,6,-1
 128 192 l 1,7,-1
 64 192 l 1,4,-1
128 320 m 1,8,-1
 128 384 l 1,9,-1
 192 384 l 1,10,-1
 192 320 l 1,11,-1
 128 320 l 1,8,-1
192 384 m 1,12,-1
 192 512 l 1,13,-1
 256 512 l 1,14,-1
 256 384 l 1,15,-1
 192 384 l 1,12,-1
0 512 m 1,16,-1
 0 576 l 1,17,-1
 192 576 l 1,18,-1
 192 512 l 1,19,-1
 0 512 l 1,16,-1
EndSplineSet
EndChar

StartChar: at
Encoding: 64 64 35
Width: 524
Flags: W
LayerCount: 2
Fore
SplineSet
128 0 m 1,0,-1
 128 64 l 1,1,-1
 384 64 l 1,2,-1
 384 0 l 1,3,-1
 128 0 l 1,0,-1
64 64 m 1,4,-1
 64 128 l 1,5,-1
 128 128 l 1,6,-1
 128 64 l 1,7,-1
 64 64 l 1,4,-1
128 192 m 1,8,-1
 128 384 l 1,9,-1
 192 384 l 1,10,-1
 192 192 l 1,11,-1
 128 192 l 1,8,-1
0 128 m 1,12,-1
 0 448 l 1,13,-1
 64 448 l 1,14,-1
 64 128 l 1,15,-1
 0 128 l 1,12,-1
192 128 m 1,16,-1
 192 192 l 1,17,-1
 256 192 l 1,18,-1
 256 384 l 1,19,-1
 192 384 l 1,20,-1
 192 448 l 1,21,-1
 320 448 l 1,22,-1
 320 192 l 1,23,-1
 384 192 l 1,24,-1
 384 128 l 1,25,-1
 192 128 l 1,16,-1
384 192 m 1,26,-1
 384 448 l 1,27,-1
 448 448 l 1,28,-1
 448 192 l 1,29,-1
 384 192 l 1,26,-1
64 448 m 1,30,-1
 64 512 l 1,31,-1
 128 512 l 1,32,-1
 128 448 l 1,33,-1
 64 448 l 1,30,-1
320 448 m 1,34,-1
 320 512 l 1,35,-1
 384 512 l 1,36,-1
 384 448 l 1,37,-1
 320 448 l 1,34,-1
128 512 m 1,38,-1
 128 576 l 1,39,-1
 320 576 l 1,40,-1
 320 512 l 1,41,-1
 128 512 l 1,38,-1
EndSplineSet
EndChar

StartChar: A
Encoding: 65 65 36
Width: 396
Flags: W
LayerCount: 2
Fore
SplineSet
0 0 m 1,0,-1
 0 256 l 1,1,-1
 64 256 l 1,2,-1
 64 448 l 1,3,-1
 128 448 l 1,4,-1
 128 256 l 1,5,-1
 192 256 l 1,6,-1
 192 448 l 1,7,-1
 256 448 l 1,8,-1
 256 256 l 1,9,-1
 320 256 l 1,10,-1
 320 0 l 1,11,-1
 256 0 l 1,12,-1
 256 192 l 1,13,-1
 64 192 l 1,14,-1
 64 0 l 1,15,-1
 0 0 l 1,0,-1
128 448 m 1,16,-1
 128 576 l 1,17,-1
 192 576 l 1,18,-1
 192 448 l 1,19,-1
 128 448 l 1,16,-1
EndSplineSet
EndChar

StartChar: B
Encoding: 66 66 37
Width: 396
Flags: W
LayerCount: 2
Fore
SplineSet
256 64 m 1,0,-1
 256 256 l 1,1,-1
 320 256 l 1,2,-1
 320 64 l 1,3,-1
 256 64 l 1,0,-1
256 320 m 1,4,-1
 256 512 l 1,5,-1
 320 512 l 1,6,-1
 320 320 l 1,7,-1
 256 320 l 1,4,-1
0 0 m 1,8,-1
 0 576 l 1,9,-1
 256 576 l 1,10,-1
 256 512 l 1,11,-1
 64 512 l 1,12,-1
 64 320 l 1,13,-1
 256 320 l 1,14,-1
 256 256 l 1,15,-1
 64 256 l 1,16,-1
 64 64 l 1,17,-1
 256 64 l 1,18,-1
 256 0 l 1,19,-1
 0 0 l 1,8,-1
EndSplineSet
EndChar

StartChar: C
Encoding: 67 67 38
Width: 396
Flags: W
LayerCount: 2
Fore
SplineSet
64 0 m 1,0,-1
 64 64 l 1,1,-1
 320 64 l 1,2,-1
 320 0 l 1,3,-1
 64 0 l 1,0,-1
0 64 m 1,4,-1
 0 512 l 1,5,-1
 64 512 l 1,6,-1
 64 64 l 1,7,-1
 0 64 l 1,4,-1
64 512 m 1,8,-1
 64 576 l 1,9,-1
 320 576 l 1,10,-1
 320 512 l 1,11,-1
 64 512 l 1,8,-1
EndSplineSet
EndChar

StartChar: D
Encoding: 68 68 39
Width: 396
Flags: W
LayerCount: 2
Fore
SplineSet
256 64 m 1,0,-1
 256 512 l 1,1,-1
 320 512 l 1,2,-1
 320 64 l 1,3,-1
 256 64 l 1,0,-1
0 0 m 1,4,-1
 0 576 l 1,5,-1
 256 576 l 1,6,-1
 256 512 l 1,7,-1
 64 512 l 1,8,-1
 64 64 l 1,9,-1
 256 64 l 1,10,-1
 256 0 l 1,11,-1
 0 0 l 1,4,-1
EndSplineSet
EndChar

StartChar: E
Encoding: 69 69 40
Width: 332
Flags: W
LayerCount: 2
Fore
SplineSet
0 0 m 1,0,-1
 0 576 l 1,1,-1
 256 576 l 1,2,-1
 256 512 l 1,3,-1
 64 512 l 1,4,-1
 64 320 l 1,5,-1
 256 320 l 1,6,-1
 256 256 l 1,7,-1
 64 256 l 1,8,-1
 64 64 l 1,9,-1
 256 64 l 1,10,-1
 256 0 l 1,11,-1
 0 0 l 1,0,-1
EndSplineSet
EndChar

StartChar: F
Encoding: 70 70 41
Width: 332
Flags: W
LayerCount: 2
Fore
SplineSet
0 0 m 1,0,-1
 0 576 l 1,1,-1
 256 576 l 1,2,-1
 256 512 l 1,3,-1
 64 512 l 1,4,-1
 64 320 l 1,5,-1
 256 320 l 1,6,-1
 256 256 l 1,7,-1
 64 256 l 1,8,-1
 64 0 l 1,9,-1
 0 0 l 1,0,-1
EndSplineSet
EndChar

StartChar: G
Encoding: 71 71 42
Width: 396
Flags: W
LayerCount: 2
Fore
SplineSet
64 0 m 1,0,-1
 64 64 l 1,1,-1
 256 64 l 1,2,-1
 256 0 l 1,3,-1
 64 0 l 1,0,-1
256 64 m 1,4,-1
 256 256 l 1,5,-1
 128 256 l 1,6,-1
 128 320 l 1,7,-1
 320 320 l 1,8,-1
 320 64 l 1,9,-1
 256 64 l 1,4,-1
0 64 m 1,10,-1
 0 512 l 1,11,-1
 64 512 l 1,12,-1
 64 64 l 1,13,-1
 0 64 l 1,10,-1
64 512 m 1,14,-1
 64 576 l 1,15,-1
 320 576 l 1,16,-1
 320 512 l 1,17,-1
 64 512 l 1,14,-1
EndSplineSet
EndChar

StartChar: H
Encoding: 72 72 43
Width: 396
Flags: W
LayerCount: 2
Fore
SplineSet
0 0 m 1,0,-1
 0 576 l 1,1,-1
 64 576 l 1,2,-1
 64 320 l 1,3,-1
 256 320 l 1,4,-1
 256 576 l 1,5,-1
 320 576 l 1,6,-1
 320 0 l 1,7,-1
 256 0 l 1,8,-1
 256 256 l 1,9,-1
 64 256 l 1,10,-1
 64 0 l 1,11,-1
 0 0 l 1,0,-1
EndSplineSet
EndChar

StartChar: I
Encoding: 73 73 44
Width: 140
Flags: W
LayerCount: 2
Fore
SplineSet
0 0 m 1,0,-1
 0 576 l 1,1,-1
 64 576 l 1,2,-1
 64 0 l 1,3,-1
 0 0 l 1,0,-1
EndSplineSet
EndChar

StartChar: J
Encoding: 74 74 45
Width: 332
Flags: W
LayerCount: 2
Fore
SplineSet
0 0 m 1,0,-1
 0 64 l 1,1,-1
 192 64 l 1,2,-1
 192 0 l 1,3,-1
 0 0 l 1,0,-1
192 64 m 1,4,-1
 192 576 l 1,5,-1
 256 576 l 1,6,-1
 256 64 l 1,7,-1
 192 64 l 1,4,-1
EndSplineSet
EndChar

StartChar: K
Encoding: 75 75 46
Width: 396
Flags: W
LayerCount: 2
Fore
SplineSet
256 0 m 1,0,-1
 256 64 l 1,1,-1
 320 64 l 1,2,-1
 320 0 l 1,3,-1
 256 0 l 1,0,-1
192 64 m 1,4,-1
 192 192 l 1,5,-1
 256 192 l 1,6,-1
 256 64 l 1,7,-1
 192 64 l 1,4,-1
128 192 m 1,8,-1
 128 256 l 1,9,-1
 192 256 l 1,10,-1
 192 192 l 1,11,-1
 128 192 l 1,8,-1
128 320 m 1,12,-1
 128 384 l 1,13,-1
 192 384 l 1,14,-1
 192 320 l 1,15,-1
 128 320 l 1,12,-1
192 384 m 1,16,-1
 192 512 l 1,17,-1
 256 512 l 1,18,-1
 256 384 l 1,19,-1
 192 384 l 1,16,-1
0 0 m 1,20,-1
 0 576 l 1,21,-1
 64 576 l 1,22,-1
 64 320 l 1,23,-1
 128 320 l 1,24,-1
 128 256 l 1,25,-1
 64 256 l 1,26,-1
 64 0 l 1,27,-1
 0 0 l 1,20,-1
256 512 m 1,28,-1
 256 576 l 1,29,-1
 320 576 l 1,30,-1
 320 512 l 1,31,-1
 256 512 l 1,28,-1
EndSplineSet
EndChar

StartChar: L
Encoding: 76 76 47
Width: 332
Flags: W
LayerCount: 2
Fore
SplineSet
0 0 m 1,0,-1
 0 576 l 1,1,-1
 64 576 l 1,2,-1
 64 64 l 1,3,-1
 256 64 l 1,4,-1
 256 0 l 1,5,-1
 0 0 l 1,0,-1
EndSplineSet
EndChar

StartChar: M
Encoding: 77 77 48
Width: 396
Flags: W
LayerCount: 2
Fore
SplineSet
128 192 m 1,0,-1
 128 320 l 1,1,-1
 192 320 l 1,2,-1
 192 192 l 1,3,-1
 128 192 l 1,0,-1
0 0 m 1,4,-1
 0 576 l 1,5,-1
 64 576 l 1,6,-1
 64 448 l 1,7,-1
 128 448 l 1,8,-1
 128 320 l 1,9,-1
 64 320 l 1,10,-1
 64 0 l 1,11,-1
 0 0 l 1,4,-1
256 0 m 1,12,-1
 256 320 l 1,13,-1
 192 320 l 1,14,-1
 192 448 l 1,15,-1
 256 448 l 1,16,-1
 256 576 l 1,17,-1
 320 576 l 1,18,-1
 320 0 l 1,19,-1
 256 0 l 1,12,-1
EndSplineSet
EndChar

StartChar: N
Encoding: 78 78 49
Width: 396
Flags: W
LayerCount: 2
Fore
SplineSet
128 256 m 1,0,-1
 128 384 l 1,1,-1
 192 384 l 1,2,-1
 192 256 l 1,3,-1
 128 256 l 1,0,-1
0 0 m 1,4,-1
 0 576 l 1,5,-1
 64 576 l 1,6,-1
 64 512 l 1,7,-1
 128 512 l 1,8,-1
 128 384 l 1,9,-1
 64 384 l 1,10,-1
 64 0 l 1,11,-1
 0 0 l 1,4,-1
256 0 m 1,12,-1
 256 128 l 1,13,-1
 192 128 l 1,14,-1
 192 256 l 1,15,-1
 256 256 l 1,16,-1
 256 576 l 1,17,-1
 320 576 l 1,18,-1
 320 0 l 1,19,-1
 256 0 l 1,12,-1
EndSplineSet
EndChar

StartChar: O
Encoding: 79 79 50
Width: 396
Flags: W
LayerCount: 2
Fore
SplineSet
64 0 m 1,0,-1
 64 64 l 1,1,-1
 256 64 l 1,2,-1
 256 0 l 1,3,-1
 64 0 l 1,0,-1
0 64 m 1,4,-1
 0 512 l 1,5,-1
 64 512 l 1,6,-1
 64 64 l 1,7,-1
 0 64 l 1,4,-1
256 64 m 1,8,-1
 256 512 l 1,9,-1
 320 512 l 1,10,-1
 320 64 l 1,11,-1
 256 64 l 1,8,-1
64 512 m 1,12,-1
 64 576 l 1,13,-1
 256 576 l 1,14,-1
 256 512 l 1,15,-1
 64 512 l 1,12,-1
EndSplineSet
EndChar

StartChar: P
Encoding: 80 80 51
Width: 396
Flags: W
LayerCount: 2
Fore
SplineSet
256 320 m 1,0,-1
 256 512 l 1,1,-1
 320 512 l 1,2,-1
 320 320 l 1,3,-1
 256 320 l 1,0,-1
0 0 m 1,4,-1
 0 576 l 1,5,-1
 256 576 l 1,6,-1
 256 512 l 1,7,-1
 64 512 l 1,8,-1
 64 320 l 1,9,-1
 256 320 l 1,10,-1
 256 256 l 1,11,-1
 64 256 l 1,12,-1
 64 0 l 1,13,-1
 0 0 l 1,4,-1
EndSplineSet
EndChar

StartChar: Q
Encoding: 81 81 52
Width: 396
Flags: W
LayerCount: 2
Fore
SplineSet
192 -64 m 1,0,-1
 192 0 l 1,1,-1
 64 0 l 1,2,-1
 64 64 l 1,3,-1
 128 64 l 1,4,-1
 128 128 l 1,5,-1
 192 128 l 1,6,-1
 192 64 l 1,7,-1
 256 64 l 1,8,-1
 256 0 l 1,9,-1
 320 0 l 1,10,-1
 320 -64 l 1,11,-1
 192 -64 l 1,0,-1
0 64 m 1,12,-1
 0 512 l 1,13,-1
 64 512 l 1,14,-1
 64 64 l 1,15,-1
 0 64 l 1,12,-1
256 64 m 1,16,-1
 256 512 l 1,17,-1
 320 512 l 1,18,-1
 320 64 l 1,19,-1
 256 64 l 1,16,-1
64 512 m 1,20,-1
 64 576 l 1,21,-1
 256 576 l 1,22,-1
 256 512 l 1,23,-1
 64 512 l 1,20,-1
EndSplineSet
EndChar

StartChar: R
Encoding: 82 82 53
Width: 396
Flags: W
LayerCount: 2
Fore
SplineSet
256 0 m 1,0,-1
 256 128 l 1,1,-1
 320 128 l 1,2,-1
 320 0 l 1,3,-1
 256 0 l 1,0,-1
256 320 m 1,4,-1
 256 512 l 1,5,-1
 320 512 l 1,6,-1
 320 320 l 1,7,-1
 256 320 l 1,4,-1
0 0 m 1,8,-1
 0 576 l 1,9,-1
 256 576 l 1,10,-1
 256 512 l 1,11,-1
 64 512 l 1,12,-1
 64 320 l 1,13,-1
 256 320 l 1,14,-1
 256 128 l 1,15,-1
 192 128 l 1,16,-1
 192 256 l 1,17,-1
 64 256 l 1,18,-1
 64 0 l 1,19,-1
 0 0 l 1,8,-1
EndSplineSet
EndChar

StartChar: S
Encoding: 83 83 54
Width: 332
Flags: W
LayerCount: 2
Fore
SplineSet
0 0 m 1,0,-1
 0 64 l 1,1,-1
 192 64 l 1,2,-1
 192 0 l 1,3,-1
 0 0 l 1,0,-1
192 64 m 1,4,-1
 192 256 l 1,5,-1
 256 256 l 1,6,-1
 256 64 l 1,7,-1
 192 64 l 1,4,-1
64 256 m 1,8,-1
 64 320 l 1,9,-1
 192 320 l 1,10,-1
 192 256 l 1,11,-1
 64 256 l 1,8,-1
0 320 m 1,12,-1
 0 512 l 1,13,-1
 64 512 l 1,14,-1
 64 320 l 1,15,-1
 0 320 l 1,12,-1
64 512 m 1,16,-1
 64 576 l 1,17,-1
 256 576 l 1,18,-1
 256 512 l 1,19,-1
 64 512 l 1,16,-1
EndSplineSet
EndChar

StartChar: T
Encoding: 84 84 55
Width: 396
Flags: W
LayerCount: 2
Fore
SplineSet
128 0 m 1,0,-1
 128 512 l 1,1,-1
 0 512 l 1,2,-1
 0 576 l 1,3,-1
 320 576 l 1,4,-1
 320 512 l 1,5,-1
 192 512 l 1,6,-1
 192 0 l 1,7,-1
 128 0 l 1,0,-1
EndSplineSet
EndChar

StartChar: U
Encoding: 85 85 56
Width: 396
Flags: W
LayerCount: 2
Fore
SplineSet
64 0 m 1,0,-1
 64 64 l 1,1,-1
 256 64 l 1,2,-1
 256 0 l 1,3,-1
 64 0 l 1,0,-1
0 64 m 1,4,-1
 0 576 l 1,5,-1
 64 576 l 1,6,-1
 64 64 l 1,7,-1
 0 64 l 1,4,-1
256 64 m 1,8,-1
 256 576 l 1,9,-1
 320 576 l 1,10,-1
 320 64 l 1,11,-1
 256 64 l 1,8,-1
EndSplineSet
EndChar

StartChar: V
Encoding: 86 86 57
Width: 396
Flags: W
LayerCount: 2
Fore
SplineSet
128 0 m 1,0,-1
 128 128 l 1,1,-1
 192 128 l 1,2,-1
 192 0 l 1,3,-1
 128 0 l 1,0,-1
64 128 m 1,4,-1
 64 384 l 1,5,-1
 128 384 l 1,6,-1
 128 128 l 1,7,-1
 64 128 l 1,4,-1
192 128 m 1,8,-1
 192 384 l 1,9,-1
 256 384 l 1,10,-1
 256 128 l 1,11,-1
 192 128 l 1,8,-1
0 384 m 1,12,-1
 0 576 l 1,13,-1
 64 576 l 1,14,-1
 64 384 l 1,15,-1
 0 384 l 1,12,-1
256 384 m 1,16,-1
 256 576 l 1,17,-1
 320 576 l 1,18,-1
 320 384 l 1,19,-1
 256 384 l 1,16,-1
EndSplineSet
EndChar

StartChar: W
Encoding: 87 87 58
Width: 396
Flags: W
LayerCount: 2
Fore
SplineSet
64 0 m 1,0,-1
 64 192 l 1,1,-1
 128 192 l 1,2,-1
 128 0 l 1,3,-1
 64 0 l 1,0,-1
192 0 m 1,4,-1
 192 192 l 1,5,-1
 256 192 l 1,6,-1
 256 0 l 1,7,-1
 192 0 l 1,4,-1
128 192 m 1,8,-1
 128 448 l 1,9,-1
 192 448 l 1,10,-1
 192 192 l 1,11,-1
 128 192 l 1,8,-1
0 192 m 1,12,-1
 0 576 l 1,13,-1
 64 576 l 1,14,-1
 64 192 l 1,15,-1
 0 192 l 1,12,-1
256 192 m 1,16,-1
 256 576 l 1,17,-1
 320 576 l 1,18,-1
 320 192 l 1,19,-1
 256 192 l 1,16,-1
EndSplineSet
EndChar

StartChar: X
Encoding: 88 88 59
Width: 396
Flags: W
LayerCount: 2
Fore
SplineSet
0 0 m 1,0,-1
 0 128 l 1,1,-1
 64 128 l 1,2,-1
 64 0 l 1,3,-1
 0 0 l 1,0,-1
256 0 m 1,4,-1
 256 128 l 1,5,-1
 320 128 l 1,6,-1
 320 0 l 1,7,-1
 256 0 l 1,4,-1
64 128 m 1,8,-1
 64 256 l 1,9,-1
 128 256 l 1,10,-1
 128 128 l 1,11,-1
 64 128 l 1,8,-1
192 128 m 1,12,-1
 192 256 l 1,13,-1
 256 256 l 1,14,-1
 256 128 l 1,15,-1
 192 128 l 1,12,-1
128 256 m 1,16,-1
 128 320 l 1,17,-1
 192 320 l 1,18,-1
 192 256 l 1,19,-1
 128 256 l 1,16,-1
64 320 m 1,20,-1
 64 448 l 1,21,-1
 128 448 l 1,22,-1
 128 320 l 1,23,-1
 64 320 l 1,20,-1
192 320 m 1,24,-1
 192 448 l 1,25,-1
 256 448 l 1,26,-1
 256 320 l 1,27,-1
 192 320 l 1,24,-1
0 448 m 1,28,-1
 0 576 l 1,29,-1
 64 576 l 1,30,-1
 64 448 l 1,31,-1
 0 448 l 1,28,-1
256 448 m 1,32,-1
 256 576 l 1,33,-1
 320 576 l 1,34,-1
 320 448 l 1,35,-1
 256 448 l 1,32,-1
EndSplineSet
EndChar

StartChar: Y
Encoding: 89 89 60
Width: 396
Flags: W
LayerCount: 2
Fore
SplineSet
128 0 m 1,0,-1
 128 320 l 1,1,-1
 192 320 l 1,2,-1
 192 0 l 1,3,-1
 128 0 l 1,0,-1
64 320 m 1,4,-1
 64 448 l 1,5,-1
 128 448 l 1,6,-1
 128 320 l 1,7,-1
 64 320 l 1,4,-1
192 320 m 1,8,-1
 192 448 l 1,9,-1
 256 448 l 1,10,-1
 256 320 l 1,11,-1
 192 320 l 1,8,-1
0 448 m 1,12,-1
 0 576 l 1,13,-1
 64 576 l 1,14,-1
 64 448 l 1,15,-1
 0 448 l 1,12,-1
256 448 m 1,16,-1
 256 576 l 1,17,-1
 320 576 l 1,18,-1
 320 448 l 1,19,-1
 256 448 l 1,16,-1
EndSplineSet
EndChar

StartChar: Z
Encoding: 90 90 61
Width: 332
Flags: W
LayerCount: 2
Fore
SplineSet
0 0 m 1,0,-1
 0 128 l 1,1,-1
 64 128 l 1,2,-1
 64 64 l 1,3,-1
 256 64 l 1,4,-1
 256 0 l 1,5,-1
 0 0 l 1,0,-1
64 128 m 1,6,-1
 64 320 l 1,7,-1
 128 320 l 1,8,-1
 128 448 l 1,9,-1
 192 448 l 1,10,-1
 192 256 l 1,11,-1
 128 256 l 1,12,-1
 128 128 l 1,13,-1
 64 128 l 1,6,-1
192 448 m 1,14,-1
 192 512 l 1,15,-1
 0 512 l 1,16,-1
 0 576 l 1,17,-1
 256 576 l 1,18,-1
 256 448 l 1,19,-1
 192 448 l 1,14,-1
EndSplineSet
EndChar

StartChar: bracketleft
Encoding: 91 91 62
Width: 268
Flags: W
LayerCount: 2
Fore
SplineSet
0 0 m 1,0,-1
 0 576 l 1,1,-1
 192 576 l 1,2,-1
 192 512 l 1,3,-1
 64 512 l 1,4,-1
 64 64 l 1,5,-1
 192 64 l 1,6,-1
 192 0 l 1,7,-1
 0 0 l 1,0,-1
EndSplineSet
EndChar

StartChar: backslash
Encoding: 92 92 63
Width: 268
Flags: W
LayerCount: 2
Fore
SplineSet
128 0 m 1,0,-1
 128 192 l 1,1,-1
 192 192 l 1,2,-1
 192 0 l 1,3,-1
 128 0 l 1,0,-1
64 192 m 1,4,-1
 64 384 l 1,5,-1
 128 384 l 1,6,-1
 128 192 l 1,7,-1
 64 192 l 1,4,-1
0 384 m 1,8,-1
 0 576 l 1,9,-1
 64 576 l 1,10,-1
 64 384 l 1,11,-1
 0 384 l 1,8,-1
EndSplineSet
EndChar

StartChar: bracketright
Encoding: 93 93 64
Width: 268
Flags: W
LayerCount: 2
Fore
SplineSet
0 0 m 1,0,-1
 0 64 l 1,1,-1
 128 64 l 1,2,-1
 128 512 l 1,3,-1
 0 512 l 1,4,-1
 0 576 l 1,5,-1
 192 576 l 1,6,-1
 192 0 l 1,7,-1
 0 0 l 1,0,-1
EndSplineSet
EndChar

StartChar: asciicircum
Encoding: 94 94 65
Width: 268
Flags: W
LayerCount: 2
Fore
SplineSet
0 448 m 1,0,-1
 0 512 l 1,1,-1
 64 512 l 1,2,-1
 64 448 l 1,3,-1
 0 448 l 1,0,-1
128 448 m 1,4,-1
 128 512 l 1,5,-1
 192 512 l 1,6,-1
 192 448 l 1,7,-1
 128 448 l 1,4,-1
64 512 m 1,8,-1
 64 576 l 1,9,-1
 128 576 l 1,10,-1
 128 512 l 1,11,-1
 64 512 l 1,8,-1
EndSplineSet
EndChar

StartChar: underscore
Encoding: 95 95 66
Width: 396
Flags: W
LayerCount: 2
Fore
SplineSet
0 0 m 1,0,-1
 0 64 l 1,1,-1
 320 64 l 1,2,-1
 320 0 l 1,3,-1
 0 0 l 1,0,-1
EndSplineSet
EndChar

StartChar: a
Encoding: 97 97 67
Width: 396
Flags: W
LayerCount: 2
Fore
SplineSet
0 64 m 1,0,-1
 0 192 l 1,1,-1
 64 192 l 1,2,-1
 64 64 l 1,3,-1
 0 64 l 1,0,-1
64 0 m 1,4,-1
 64 64 l 1,5,-1
 256 64 l 1,6,-1
 256 192 l 1,7,-1
 64 192 l 1,8,-1
 64 256 l 1,9,-1
 256 256 l 1,10,-1
 256 320 l 1,11,-1
 320 320 l 1,12,-1
 320 0 l 1,13,-1
 64 0 l 1,4,-1
0 320 m 1,14,-1
 0 384 l 1,15,-1
 256 384 l 1,16,-1
 256 320 l 1,17,-1
 0 320 l 1,14,-1
EndSplineSet
EndChar

StartChar: b
Encoding: 98 98 68
Width: 396
Flags: W
LayerCount: 2
Fore
SplineSet
256 64 m 1,0,-1
 256 320 l 1,1,-1
 320 320 l 1,2,-1
 320 64 l 1,3,-1
 256 64 l 1,0,-1
0 0 m 1,4,-1
 0 576 l 1,5,-1
 64 576 l 1,6,-1
 64 384 l 1,7,-1
 256 384 l 1,8,-1
 256 320 l 1,9,-1
 64 320 l 1,10,-1
 64 64 l 1,11,-1
 256 64 l 1,12,-1
 256 0 l 1,13,-1
 0 0 l 1,4,-1
EndSplineSet
EndChar

StartChar: c
Encoding: 99 99 69
Width: 396
Flags: W
LayerCount: 2
Fore
SplineSet
64 0 m 1,0,-1
 64 64 l 1,1,-1
 320 64 l 1,2,-1
 320 0 l 1,3,-1
 64 0 l 1,0,-1
0 64 m 1,4,-1
 0 320 l 1,5,-1
 64 320 l 1,6,-1
 64 64 l 1,7,-1
 0 64 l 1,4,-1
64 320 m 1,8,-1
 64 384 l 1,9,-1
 320 384 l 1,10,-1
 320 320 l 1,11,-1
 64 320 l 1,8,-1
EndSplineSet
EndChar

StartChar: d
Encoding: 100 100 70
Width: 396
Flags: W
LayerCount: 2
Fore
SplineSet
0 64 m 1,0,-1
 0 320 l 1,1,-1
 64 320 l 1,2,-1
 64 64 l 1,3,-1
 0 64 l 1,0,-1
64 0 m 1,4,-1
 64 64 l 1,5,-1
 256 64 l 1,6,-1
 256 320 l 1,7,-1
 64 320 l 1,8,-1
 64 384 l 1,9,-1
 256 384 l 1,10,-1
 256 576 l 1,11,-1
 320 576 l 1,12,-1
 320 0 l 1,13,-1
 64 0 l 1,4,-1
EndSplineSet
EndChar

StartChar: e
Encoding: 101 101 71
Width: 396
Flags: W
LayerCount: 2
Fore
SplineSet
64 0 m 1,0,-1
 64 64 l 1,1,-1
 320 64 l 1,2,-1
 320 0 l 1,3,-1
 64 0 l 1,0,-1
0 64 m 1,4,-1
 0 320 l 1,5,-1
 64 320 l 1,6,-1
 64 256 l 1,7,-1
 256 256 l 1,8,-1
 256 320 l 1,9,-1
 320 320 l 1,10,-1
 320 192 l 1,11,-1
 64 192 l 1,12,-1
 64 64 l 1,13,-1
 0 64 l 1,4,-1
64 320 m 1,14,-1
 64 384 l 1,15,-1
 256 384 l 1,16,-1
 256 320 l 1,17,-1
 64 320 l 1,14,-1
EndSplineSet
EndChar

StartChar: f
Encoding: 102 102 72
Width: 332
Flags: W
LayerCount: 2
Fore
SplineSet
64 0 m 1,0,-1
 64 320 l 1,1,-1
 0 320 l 1,2,-1
 0 384 l 1,3,-1
 64 384 l 1,4,-1
 64 512 l 1,5,-1
 128 512 l 1,6,-1
 128 384 l 1,7,-1
 256 384 l 1,8,-1
 256 320 l 1,9,-1
 128 320 l 1,10,-1
 128 0 l 1,11,-1
 64 0 l 1,0,-1
128 512 m 1,12,-1
 128 576 l 1,13,-1
 256 576 l 1,14,-1
 256 512 l 1,15,-1
 128 512 l 1,12,-1
EndSplineSet
EndChar

StartChar: g
Encoding: 103 103 73
Width: 396
Flags: W
LayerCount: 2
Fore
SplineSet
0 -64 m 1,0,-1
 0 0 l 1,1,-1
 256 0 l 1,2,-1
 256 -64 l 1,3,-1
 0 -64 l 1,0,-1
0 128 m 1,4,-1
 0 320 l 1,5,-1
 64 320 l 1,6,-1
 64 128 l 1,7,-1
 0 128 l 1,4,-1
256 0 m 1,8,-1
 256 64 l 1,9,-1
 64 64 l 1,10,-1
 64 128 l 1,11,-1
 256 128 l 1,12,-1
 256 320 l 1,13,-1
 64 320 l 1,14,-1
 64 384 l 1,15,-1
 320 384 l 1,16,-1
 320 0 l 1,17,-1
 256 0 l 1,8,-1
EndSplineSet
EndChar

StartChar: h
Encoding: 104 104 74
Width: 396
Flags: W
LayerCount: 2
Fore
SplineSet
256 0 m 1,0,-1
 256 320 l 1,1,-1
 320 320 l 1,2,-1
 320 0 l 1,3,-1
 256 0 l 1,0,-1
0 0 m 1,4,-1
 0 576 l 1,5,-1
 64 576 l 1,6,-1
 64 384 l 1,7,-1
 256 384 l 1,8,-1
 256 320 l 1,9,-1
 64 320 l 1,10,-1
 64 0 l 1,11,-1
 0 0 l 1,4,-1
EndSplineSet
EndChar

StartChar: i
Encoding: 105 105 75
Width: 140
Flags: W
LayerCount: 2
Fore
SplineSet
0 0 m 1,0,-1
 0 384 l 1,1,-1
 64 384 l 1,2,-1
 64 0 l 1,3,-1
 0 0 l 1,0,-1
0 448 m 1,4,-1
 0 512 l 1,5,-1
 64 512 l 1,6,-1
 64 448 l 1,7,-1
 0 448 l 1,4,-1
EndSplineSet
EndChar

StartChar: j
Encoding: 106 106 76
Width: 268
Flags: W
LayerCount: 2
Fore
SplineSet
0 -64 m 1,0,-1
 0 0 l 1,1,-1
 128 0 l 1,2,-1
 128 -64 l 1,3,-1
 0 -64 l 1,0,-1
128 0 m 1,4,-1
 128 384 l 1,5,-1
 192 384 l 1,6,-1
 192 0 l 1,7,-1
 128 0 l 1,4,-1
128 448 m 1,8,-1
 128 512 l 1,9,-1
 192 512 l 1,10,-1
 192 448 l 1,11,-1
 128 448 l 1,8,-1
EndSplineSet
EndChar

StartChar: k
Encoding: 107 107 77
Width: 332
Flags: W
LayerCount: 2
Fore
SplineSet
192 0 m 1,0,-1
 192 128 l 1,1,-1
 256 128 l 1,2,-1
 256 0 l 1,3,-1
 192 0 l 1,0,-1
128 128 m 1,4,-1
 128 192 l 1,5,-1
 192 192 l 1,6,-1
 192 128 l 1,7,-1
 128 128 l 1,4,-1
128 256 m 1,8,-1
 128 320 l 1,9,-1
 192 320 l 1,10,-1
 192 256 l 1,11,-1
 128 256 l 1,8,-1
192 320 m 1,12,-1
 192 384 l 1,13,-1
 256 384 l 1,14,-1
 256 320 l 1,15,-1
 192 320 l 1,12,-1
0 0 m 1,16,-1
 0 576 l 1,17,-1
 64 576 l 1,18,-1
 64 256 l 1,19,-1
 128 256 l 1,20,-1
 128 192 l 1,21,-1
 64 192 l 1,22,-1
 64 0 l 1,23,-1
 0 0 l 1,16,-1
EndSplineSet
EndChar

StartChar: l
Encoding: 108 108 78
Width: 204
Flags: W
LayerCount: 2
Fore
SplineSet
64 0 m 1,0,-1
 64 64 l 1,1,-1
 128 64 l 1,2,-1
 128 0 l 1,3,-1
 64 0 l 1,0,-1
0 64 m 1,4,-1
 0 576 l 1,5,-1
 64 576 l 1,6,-1
 64 64 l 1,7,-1
 0 64 l 1,4,-1
EndSplineSet
EndChar

StartChar: m
Encoding: 109 109 79
Width: 524
Flags: W
LayerCount: 2
Fore
SplineSet
384 0 m 1,0,-1
 384 320 l 1,1,-1
 448 320 l 1,2,-1
 448 0 l 1,3,-1
 384 0 l 1,0,-1
0 0 m 1,4,-1
 0 384 l 1,5,-1
 384 384 l 1,6,-1
 384 320 l 1,7,-1
 256 320 l 1,8,-1
 256 0 l 1,9,-1
 192 0 l 1,10,-1
 192 320 l 1,11,-1
 64 320 l 1,12,-1
 64 0 l 1,13,-1
 0 0 l 1,4,-1
EndSplineSet
EndChar

StartChar: n
Encoding: 110 110 80
Width: 396
Flags: W
LayerCount: 2
Fore
SplineSet
256 0 m 1,0,-1
 256 320 l 1,1,-1
 320 320 l 1,2,-1
 320 0 l 1,3,-1
 256 0 l 1,0,-1
0 0 m 1,4,-1
 0 384 l 1,5,-1
 256 384 l 1,6,-1
 256 320 l 1,7,-1
 64 320 l 1,8,-1
 64 0 l 1,9,-1
 0 0 l 1,4,-1
EndSplineSet
EndChar

StartChar: o
Encoding: 111 111 81
Width: 396
Flags: W
LayerCount: 2
Fore
SplineSet
64 0 m 1,0,-1
 64 64 l 1,1,-1
 256 64 l 1,2,-1
 256 0 l 1,3,-1
 64 0 l 1,0,-1
0 64 m 1,4,-1
 0 320 l 1,5,-1
 64 320 l 1,6,-1
 64 64 l 1,7,-1
 0 64 l 1,4,-1
256 64 m 1,8,-1
 256 320 l 1,9,-1
 320 320 l 1,10,-1
 320 64 l 1,11,-1
 256 64 l 1,8,-1
64 320 m 1,12,-1
 64 384 l 1,13,-1
 256 384 l 1,14,-1
 256 320 l 1,15,-1
 64 320 l 1,12,-1
EndSplineSet
EndChar

StartChar: p
Encoding: 112 112 82
Width: 396
Flags: W
LayerCount: 2
Fore
SplineSet
256 128 m 1,0,-1
 256 320 l 1,1,-1
 320 320 l 1,2,-1
 320 128 l 1,3,-1
 256 128 l 1,0,-1
0 -64 m 1,4,-1
 0 384 l 1,5,-1
 256 384 l 1,6,-1
 256 320 l 1,7,-1
 64 320 l 1,8,-1
 64 128 l 1,9,-1
 256 128 l 1,10,-1
 256 64 l 1,11,-1
 64 64 l 1,12,-1
 64 -64 l 1,13,-1
 0 -64 l 1,4,-1
EndSplineSet
EndChar

StartChar: q
Encoding: 113 113 83
Width: 396
Flags: W
LayerCount: 2
Fore
SplineSet
0 128 m 1,0,-1
 0 320 l 1,1,-1
 64 320 l 1,2,-1
 64 128 l 1,3,-1
 0 128 l 1,0,-1
256 -64 m 1,4,-1
 256 64 l 1,5,-1
 64 64 l 1,6,-1
 64 128 l 1,7,-1
 256 128 l 1,8,-1
 256 320 l 1,9,-1
 64 320 l 1,10,-1
 64 384 l 1,11,-1
 320 384 l 1,12,-1
 320 -64 l 1,13,-1
 256 -64 l 1,4,-1
EndSplineSet
EndChar

StartChar: r
Encoding: 114 114 84
Width: 332
Flags: W
LayerCount: 2
Fore
SplineSet
0 0 m 1,0,-1
 0 384 l 1,1,-1
 64 384 l 1,2,-1
 64 320 l 1,3,-1
 128 320 l 1,4,-1
 128 256 l 1,5,-1
 64 256 l 1,6,-1
 64 0 l 1,7,-1
 0 0 l 1,0,-1
128 320 m 1,8,-1
 128 384 l 1,9,-1
 256 384 l 1,10,-1
 256 320 l 1,11,-1
 128 320 l 1,8,-1
EndSplineSet
EndChar

StartChar: s
Encoding: 115 115 85
Width: 332
Flags: W
LayerCount: 2
Fore
SplineSet
0 0 m 1,0,-1
 0 64 l 1,1,-1
 192 64 l 1,2,-1
 192 0 l 1,3,-1
 0 0 l 1,0,-1
192 64 m 1,4,-1
 192 192 l 1,5,-1
 256 192 l 1,6,-1
 256 64 l 1,7,-1
 192 64 l 1,4,-1
64 192 m 1,8,-1
 64 256 l 1,9,-1
 192 256 l 1,10,-1
 192 192 l 1,11,-1
 64 192 l 1,8,-1
0 256 m 1,12,-1
 0 320 l 1,13,-1
 64 320 l 1,14,-1
 64 256 l 1,15,-1
 0 256 l 1,12,-1
64 320 m 1,16,-1
 64 384 l 1,17,-1
 256 384 l 1,18,-1
 256 320 l 1,19,-1
 64 320 l 1,16,-1
EndSplineSet
EndChar

StartChar: t
Encoding: 116 116 86
Width: 332
Flags: W
LayerCount: 2
Fore
SplineSet
128 0 m 1,0,-1
 128 64 l 1,1,-1
 256 64 l 1,2,-1
 256 0 l 1,3,-1
 128 0 l 1,0,-1
64 64 m 1,4,-1
 64 320 l 1,5,-1
 0 320 l 1,6,-1
 0 384 l 1,7,-1
 64 384 l 1,8,-1
 64 512 l 1,9,-1
 128 512 l 1,10,-1
 128 384 l 1,11,-1
 256 384 l 1,12,-1
 256 320 l 1,13,-1
 128 320 l 1,14,-1
 128 64 l 1,15,-1
 64 64 l 1,4,-1
EndSplineSet
EndChar

StartChar: u
Encoding: 117 117 87
Width: 396
Flags: W
LayerCount: 2
Fore
SplineSet
0 64 m 1,0,-1
 0 384 l 1,1,-1
 64 384 l 1,2,-1
 64 64 l 1,3,-1
 0 64 l 1,0,-1
64 0 m 1,4,-1
 64 64 l 1,5,-1
 256 64 l 1,6,-1
 256 384 l 1,7,-1
 320 384 l 1,8,-1
 320 0 l 1,9,-1
 64 0 l 1,4,-1
EndSplineSet
EndChar

StartChar: v
Encoding: 118 118 88
Width: 396
Flags: W
LayerCount: 2
Fore
SplineSet
128 0 m 1,0,-1
 128 128 l 1,1,-1
 192 128 l 1,2,-1
 192 0 l 1,3,-1
 128 0 l 1,0,-1
64 128 m 1,4,-1
 64 256 l 1,5,-1
 128 256 l 1,6,-1
 128 128 l 1,7,-1
 64 128 l 1,4,-1
192 128 m 1,8,-1
 192 256 l 1,9,-1
 256 256 l 1,10,-1
 256 128 l 1,11,-1
 192 128 l 1,8,-1
0 256 m 1,12,-1
 0 384 l 1,13,-1
 64 384 l 1,14,-1
 64 256 l 1,15,-1
 0 256 l 1,12,-1
256 256 m 1,16,-1
 256 384 l 1,17,-1
 320 384 l 1,18,-1
 320 256 l 1,19,-1
 256 256 l 1,16,-1
EndSplineSet
EndChar

StartChar: w
Encoding: 119 119 89
Width: 396
Flags: W
LayerCount: 2
Fore
SplineSet
64 0 m 1,0,-1
 64 128 l 1,1,-1
 128 128 l 1,2,-1
 128 0 l 1,3,-1
 64 0 l 1,0,-1
192 0 m 1,4,-1
 192 128 l 1,5,-1
 256 128 l 1,6,-1
 256 0 l 1,7,-1
 192 0 l 1,4,-1
128 128 m 1,8,-1
 128 320 l 1,9,-1
 192 320 l 1,10,-1
 192 128 l 1,11,-1
 128 128 l 1,8,-1
0 128 m 1,12,-1
 0 384 l 1,13,-1
 64 384 l 1,14,-1
 64 128 l 1,15,-1
 0 128 l 1,12,-1
256 128 m 1,16,-1
 256 384 l 1,17,-1
 320 384 l 1,18,-1
 320 128 l 1,19,-1
 256 128 l 1,16,-1
EndSplineSet
EndChar

StartChar: x
Encoding: 120 120 90
Width: 396
Flags: W
LayerCount: 2
Fore
SplineSet
0 0 m 1,0,-1
 0 64 l 1,1,-1
 64 64 l 1,2,-1
 64 0 l 1,3,-1
 0 0 l 1,0,-1
256 0 m 1,4,-1
 256 64 l 1,5,-1
 320 64 l 1,6,-1
 320 0 l 1,7,-1
 256 0 l 1,4,-1
64 64 m 1,8,-1
 64 128 l 1,9,-1
 128 128 l 1,10,-1
 128 64 l 1,11,-1
 64 64 l 1,8,-1
192 64 m 1,12,-1
 192 128 l 1,13,-1
 256 128 l 1,14,-1
 256 64 l 1,15,-1
 192 64 l 1,12,-1
128 128 m 1,16,-1
 128 256 l 1,17,-1
 192 256 l 1,18,-1
 192 128 l 1,19,-1
 128 128 l 1,16,-1
64 256 m 1,20,-1
 64 320 l 1,21,-1
 128 320 l 1,22,-1
 128 256 l 1,23,-1
 64 256 l 1,20,-1
192 256 m 1,24,-1
 192 320 l 1,25,-1
 256 320 l 1,26,-1
 256 256 l 1,27,-1
 192 256 l 1,24,-1
0 320 m 1,28,-1
 0 384 l 1,29,-1
 64 384 l 1,30,-1
 64 320 l 1,31,-1
 0 320 l 1,28,-1
256 320 m 1,32,-1
 256 384 l 1,33,-1
 320 384 l 1,34,-1
 320 320 l 1,35,-1
 256 320 l 1,32,-1
EndSplineSet
EndChar

StartChar: y
Encoding: 121 121 91
Width: 396
Flags: W
LayerCount: 2
Fore
SplineSet
0 -64 m 1,0,-1
 0 0 l 1,1,-1
 128 0 l 1,2,-1
 128 -64 l 1,3,-1
 0 -64 l 1,0,-1
128 0 m 1,4,-1
 128 128 l 1,5,-1
 192 128 l 1,6,-1
 192 0 l 1,7,-1
 128 0 l 1,4,-1
64 128 m 1,8,-1
 64 256 l 1,9,-1
 128 256 l 1,10,-1
 128 128 l 1,11,-1
 64 128 l 1,8,-1
192 128 m 1,12,-1
 192 256 l 1,13,-1
 256 256 l 1,14,-1
 256 128 l 1,15,-1
 192 128 l 1,12,-1
0 256 m 1,16,-1
 0 384 l 1,17,-1
 64 384 l 1,18,-1
 64 256 l 1,19,-1
 0 256 l 1,16,-1
256 256 m 1,20,-1
 256 384 l 1,21,-1
 320 384 l 1,22,-1
 320 256 l 1,23,-1
 256 256 l 1,20,-1
EndSplineSet
EndChar

StartChar: z
Encoding: 122 122 92
Width: 396
Flags: W
LayerCount: 2
Fore
SplineSet
0 0 m 1,0,-1
 0 128 l 1,1,-1
 64 128 l 1,2,-1
 64 64 l 1,3,-1
 320 64 l 1,4,-1
 320 0 l 1,5,-1
 0 0 l 1,0,-1
64 128 m 1,6,-1
 64 192 l 1,7,-1
 128 192 l 1,8,-1
 128 128 l 1,9,-1
 64 128 l 1,6,-1
128 192 m 1,10,-1
 128 256 l 1,11,-1
 192 256 l 1,12,-1
 192 192 l 1,13,-1
 128 192 l 1,10,-1
192 256 m 1,14,-1
 192 320 l 1,15,-1
 0 320 l 1,16,-1
 0 384 l 1,17,-1
 320 384 l 1,18,-1
 320 320 l 1,19,-1
 256 320 l 1,20,-1
 256 256 l 1,21,-1
 192 256 l 1,14,-1
EndSplineSet
EndChar

StartChar: braceleft
Encoding: 123 123 93
Width: 332
Flags: W
LayerCount: 2
Fore
SplineSet
128 0 m 1,0,-1
 128 64 l 1,1,-1
 256 64 l 1,2,-1
 256 0 l 1,3,-1
 128 0 l 1,0,-1
64 64 m 1,4,-1
 64 256 l 1,5,-1
 128 256 l 1,6,-1
 128 64 l 1,7,-1
 64 64 l 1,4,-1
0 256 m 1,8,-1
 0 320 l 1,9,-1
 64 320 l 1,10,-1
 64 256 l 1,11,-1
 0 256 l 1,8,-1
64 320 m 1,12,-1
 64 512 l 1,13,-1
 128 512 l 1,14,-1
 128 320 l 1,15,-1
 64 320 l 1,12,-1
128 512 m 1,16,-1
 128 576 l 1,17,-1
 256 576 l 1,18,-1
 256 512 l 1,19,-1
 128 512 l 1,16,-1
EndSplineSet
EndChar

StartChar: bar
Encoding: 124 124 94
Width: 140
Flags: W
LayerCount: 2
Fore
SplineSet
0 0 m 1,0,-1
 0 576 l 1,1,-1
 64 576 l 1,2,-1
 64 0 l 1,3,-1
 0 0 l 1,0,-1
EndSplineSet
EndChar

StartChar: braceright
Encoding: 125 125 95
Width: 332
Flags: W
LayerCount: 2
Fore
SplineSet
0 0 m 1,0,-1
 0 64 l 1,1,-1
 128 64 l 1,2,-1
 128 0 l 1,3,-1
 0 0 l 1,0,-1
128 64 m 1,4,-1
 128 256 l 1,5,-1
 192 256 l 1,6,-1
 192 64 l 1,7,-1
 128 64 l 1,4,-1
192 256 m 1,8,-1
 192 320 l 1,9,-1
 256 320 l 1,10,-1
 256 256 l 1,11,-1
 192 256 l 1,8,-1
128 320 m 1,12,-1
 128 512 l 1,13,-1
 192 512 l 1,14,-1
 192 320 l 1,15,-1
 128 320 l 1,12,-1
0 512 m 1,16,-1
 0 576 l 1,17,-1
 128 576 l 1,18,-1
 128 512 l 1,19,-1
 0 512 l 1,16,-1
EndSplineSet
EndChar

StartChar: asciitilde
Encoding: 126 126 96
Width: 396
Flags: W
LayerCount: 2
Fore
SplineSet
192 384 m 1,0,-1
 192 448 l 1,1,-1
 256 448 l 1,2,-1
 256 384 l 1,3,-1
 192 384 l 1,0,-1
0 448 m 1,4,-1
 0 512 l 1,5,-1
 64 512 l 1,6,-1
 64 448 l 1,7,-1
 0 448 l 1,4,-1
128 448 m 1,8,-1
 128 512 l 1,9,-1
 192 512 l 1,10,-1
 192 448 l 1,11,-1
 128 448 l 1,8,-1
256 448 m 1,12,-1
 256 512 l 1,13,-1
 320 512 l 1,14,-1
 320 448 l 1,15,-1
 256 448 l 1,12,-1
64 512 m 1,16,-1
 64 576 l 1,17,-1
 128 576 l 1,18,-1
 128 512 l 1,19,-1
 64 512 l 1,16,-1
EndSplineSet
EndChar

StartChar: exclamdown
Encoding: 161 161 97
Width: 140
Flags: W
LayerCount: 2
Fore
SplineSet
0 0 m 1,0,-1
 0 384 l 1,1,-1
 64 384 l 1,2,-1
 64 0 l 1,3,-1
 0 0 l 1,0,-1
0 448 m 1,4,-1
 0 576 l 1,5,-1
 64 576 l 1,6,-1
 64 448 l 1,7,-1
 0 448 l 1,4,-1
EndSplineSet
EndChar

StartChar: cent
Encoding: 162 162 98
Width: 460
Flags: W
LayerCount: 2
Fore
SplineSet
320 128 m 1,0,-1
 320 192 l 1,1,-1
 384 192 l 1,2,-1
 384 128 l 1,3,-1
 320 128 l 1,0,-1
128 192 m 1,4,-1
 128 384 l 1,5,-1
 192 384 l 1,6,-1
 192 192 l 1,7,-1
 128 192 l 1,4,-1
64 0 m 1,8,-1
 64 128 l 1,9,-1
 0 128 l 1,10,-1
 0 448 l 1,11,-1
 64 448 l 1,12,-1
 64 192 l 1,13,-1
 128 192 l 1,14,-1
 128 128 l 1,15,-1
 320 128 l 1,16,-1
 320 64 l 1,17,-1
 128 64 l 1,18,-1
 128 0 l 1,19,-1
 64 0 l 1,8,-1
320 384 m 1,20,-1
 320 448 l 1,21,-1
 384 448 l 1,22,-1
 384 384 l 1,23,-1
 320 384 l 1,20,-1
192 384 m 1,24,-1
 192 448 l 1,25,-1
 64 448 l 1,26,-1
 64 512 l 1,27,-1
 192 512 l 1,28,-1
 192 576 l 1,29,-1
 256 576 l 1,30,-1
 256 512 l 1,31,-1
 320 512 l 1,32,-1
 320 448 l 1,33,-1
 256 448 l 1,34,-1
 256 384 l 1,35,-1
 192 384 l 1,24,-1
EndSplineSet
EndChar

StartChar: sterling
Encoding: 163 163 99
Width: 396
Flags: W
LayerCount: 2
Fore
SplineSet
0 0 m 1,0,-1
 0 128 l 1,1,-1
 64 128 l 1,2,-1
 64 64 l 1,3,-1
 320 64 l 1,4,-1
 320 0 l 1,5,-1
 0 0 l 1,0,-1
64 128 m 1,6,-1
 64 192 l 1,7,-1
 128 192 l 1,8,-1
 128 128 l 1,9,-1
 64 128 l 1,6,-1
128 192 m 1,10,-1
 128 256 l 1,11,-1
 0 256 l 1,12,-1
 0 320 l 1,13,-1
 128 320 l 1,14,-1
 128 384 l 1,15,-1
 192 384 l 1,16,-1
 192 320 l 1,17,-1
 320 320 l 1,18,-1
 320 256 l 1,19,-1
 192 256 l 1,20,-1
 192 192 l 1,21,-1
 128 192 l 1,10,-1
64 384 m 1,22,-1
 64 512 l 1,23,-1
 128 512 l 1,24,-1
 128 384 l 1,25,-1
 64 384 l 1,22,-1
256 448 m 1,26,-1
 256 512 l 1,27,-1
 320 512 l 1,28,-1
 320 448 l 1,29,-1
 256 448 l 1,26,-1
128 512 m 1,30,-1
 128 576 l 1,31,-1
 256 576 l 1,32,-1
 256 512 l 1,33,-1
 128 512 l 1,30,-1
EndSplineSet
EndChar

StartChar: copyright
Encoding: 169 169 100
Width: 652
Flags: W
LayerCount: 2
Fore
SplineSet
128 0 m 1,0,-1
 128 64 l 1,1,-1
 448 64 l 1,2,-1
 448 0 l 1,3,-1
 128 0 l 1,0,-1
64 64 m 1,4,-1
 64 128 l 1,5,-1
 128 128 l 1,6,-1
 128 64 l 1,7,-1
 64 64 l 1,4,-1
448 64 m 1,8,-1
 448 128 l 1,9,-1
 512 128 l 1,10,-1
 512 64 l 1,11,-1
 448 64 l 1,8,-1
192 128 m 1,12,-1
 192 192 l 1,13,-1
 384 192 l 1,14,-1
 384 128 l 1,15,-1
 192 128 l 1,12,-1
384 192 m 1,16,-1
 384 256 l 1,17,-1
 448 256 l 1,18,-1
 448 192 l 1,19,-1
 384 192 l 1,16,-1
128 192 m 1,20,-1
 128 384 l 1,21,-1
 192 384 l 1,22,-1
 192 192 l 1,23,-1
 128 192 l 1,20,-1
384 320 m 1,24,-1
 384 384 l 1,25,-1
 448 384 l 1,26,-1
 448 320 l 1,27,-1
 384 320 l 1,24,-1
0 128 m 1,28,-1
 0 448 l 1,29,-1
 64 448 l 1,30,-1
 64 128 l 1,31,-1
 0 128 l 1,28,-1
192 384 m 1,32,-1
 192 448 l 1,33,-1
 384 448 l 1,34,-1
 384 384 l 1,35,-1
 192 384 l 1,32,-1
512 128 m 1,36,-1
 512 448 l 1,37,-1
 576 448 l 1,38,-1
 576 128 l 1,39,-1
 512 128 l 1,36,-1
64 448 m 1,40,-1
 64 512 l 1,41,-1
 128 512 l 1,42,-1
 128 448 l 1,43,-1
 64 448 l 1,40,-1
448 448 m 1,44,-1
 448 512 l 1,45,-1
 512 512 l 1,46,-1
 512 448 l 1,47,-1
 448 448 l 1,44,-1
128 512 m 1,48,-1
 128 576 l 1,49,-1
 448 576 l 1,50,-1
 448 512 l 1,51,-1
 128 512 l 1,48,-1
EndSplineSet
EndChar

StartChar: registered
Encoding: 174 174 101
Width: 652
Flags: W
LayerCount: 2
Fore
SplineSet
128 0 m 1,0,-1
 128 64 l 1,1,-1
 448 64 l 1,2,-1
 448 0 l 1,3,-1
 128 0 l 1,0,-1
64 64 m 1,4,-1
 64 128 l 1,5,-1
 128 128 l 1,6,-1
 128 64 l 1,7,-1
 64 64 l 1,4,-1
448 64 m 1,8,-1
 448 128 l 1,9,-1
 512 128 l 1,10,-1
 512 64 l 1,11,-1
 448 64 l 1,8,-1
384 128 m 1,12,-1
 384 192 l 1,13,-1
 448 192 l 1,14,-1
 448 128 l 1,15,-1
 384 128 l 1,12,-1
384 320 m 1,16,-1
 384 384 l 1,17,-1
 448 384 l 1,18,-1
 448 320 l 1,19,-1
 384 320 l 1,16,-1
0 128 m 1,20,-1
 0 448 l 1,21,-1
 64 448 l 1,22,-1
 64 128 l 1,23,-1
 0 128 l 1,20,-1
128 128 m 1,24,-1
 128 448 l 1,25,-1
 384 448 l 1,26,-1
 384 384 l 1,27,-1
 192 384 l 1,28,-1
 192 320 l 1,29,-1
 384 320 l 1,30,-1
 384 192 l 1,31,-1
 320 192 l 1,32,-1
 320 256 l 1,33,-1
 192 256 l 1,34,-1
 192 128 l 1,35,-1
 128 128 l 1,24,-1
512 128 m 1,36,-1
 512 448 l 1,37,-1
 576 448 l 1,38,-1
 576 128 l 1,39,-1
 512 128 l 1,36,-1
64 448 m 1,40,-1
 64 512 l 1,41,-1
 128 512 l 1,42,-1
 128 448 l 1,43,-1
 64 448 l 1,40,-1
448 448 m 1,44,-1
 448 512 l 1,45,-1
 512 512 l 1,46,-1
 512 448 l 1,47,-1
 448 448 l 1,44,-1
128 512 m 1,48,-1
 128 576 l 1,49,-1
 448 576 l 1,50,-1
 448 512 l 1,51,-1
 128 512 l 1,48,-1
EndSplineSet
EndChar

StartChar: plusminus
Encoding: 177 177 102
Width: 396
Flags: W
LayerCount: 2
Fore
SplineSet
0 64 m 1,0,-1
 0 128 l 1,1,-1
 320 128 l 1,2,-1
 320 64 l 1,3,-1
 0 64 l 1,0,-1
128 192 m 1,4,-1
 128 320 l 1,5,-1
 0 320 l 1,6,-1
 0 384 l 1,7,-1
 128 384 l 1,8,-1
 128 512 l 1,9,-1
 192 512 l 1,10,-1
 192 384 l 1,11,-1
 320 384 l 1,12,-1
 320 320 l 1,13,-1
 192 320 l 1,14,-1
 192 192 l 1,15,-1
 128 192 l 1,4,-1
EndSplineSet
EndChar

StartChar: questiondown
Encoding: 191 191 103
Width: 332
Flags: W
LayerCount: 2
Fore
SplineSet
64 0 m 1,0,-1
 64 64 l 1,1,-1
 256 64 l 1,2,-1
 256 0 l 1,3,-1
 64 0 l 1,0,-1
0 64 m 1,4,-1
 0 192 l 1,5,-1
 64 192 l 1,6,-1
 64 64 l 1,7,-1
 0 64 l 1,4,-1
64 192 m 1,8,-1
 64 256 l 1,9,-1
 128 256 l 1,10,-1
 128 192 l 1,11,-1
 64 192 l 1,8,-1
128 256 m 1,12,-1
 128 384 l 1,13,-1
 192 384 l 1,14,-1
 192 256 l 1,15,-1
 128 256 l 1,12,-1
128 448 m 1,16,-1
 128 576 l 1,17,-1
 192 576 l 1,18,-1
 192 448 l 1,19,-1
 128 448 l 1,16,-1
EndSplineSet
EndChar

StartChar: Agrave
Encoding: 192 192 104
Width: 396
Flags: W
LayerCount: 2
Fore
SplineSet
0 0 m 1,0,-1
 0 256 l 1,1,-1
 64 256 l 1,2,-1
 64 448 l 1,3,-1
 128 448 l 1,4,-1
 128 256 l 1,5,-1
 192 256 l 1,6,-1
 192 448 l 1,7,-1
 256 448 l 1,8,-1
 256 256 l 1,9,-1
 320 256 l 1,10,-1
 320 0 l 1,11,-1
 256 0 l 1,12,-1
 256 192 l 1,13,-1
 64 192 l 1,14,-1
 64 0 l 1,15,-1
 0 0 l 1,0,-1
128 448 m 1,16,-1
 128 512 l 1,17,-1
 192 512 l 1,18,-1
 192 448 l 1,19,-1
 128 448 l 1,16,-1
192 576 m 1,20,-1
 192 640 l 1,21,-1
 256 640 l 1,22,-1
 256 576 l 1,23,-1
 192 576 l 1,20,-1
128 640 m 1,24,-1
 128 704 l 1,25,-1
 192 704 l 1,26,-1
 192 640 l 1,27,-1
 128 640 l 1,24,-1
EndSplineSet
EndChar

StartChar: Aacute
Encoding: 193 193 105
Width: 396
Flags: W
LayerCount: 2
Fore
SplineSet
0 0 m 1,0,-1
 0 256 l 1,1,-1
 64 256 l 1,2,-1
 64 448 l 1,3,-1
 128 448 l 1,4,-1
 128 256 l 1,5,-1
 192 256 l 1,6,-1
 192 448 l 1,7,-1
 256 448 l 1,8,-1
 256 256 l 1,9,-1
 320 256 l 1,10,-1
 320 0 l 1,11,-1
 256 0 l 1,12,-1
 256 192 l 1,13,-1
 64 192 l 1,14,-1
 64 0 l 1,15,-1
 0 0 l 1,0,-1
128 448 m 1,16,-1
 128 512 l 1,17,-1
 192 512 l 1,18,-1
 192 448 l 1,19,-1
 128 448 l 1,16,-1
64 576 m 1,20,-1
 64 640 l 1,21,-1
 128 640 l 1,22,-1
 128 576 l 1,23,-1
 64 576 l 1,20,-1
128 640 m 1,24,-1
 128 704 l 1,25,-1
 192 704 l 1,26,-1
 192 640 l 1,27,-1
 128 640 l 1,24,-1
EndSplineSet
EndChar

StartChar: Acircumflex
Encoding: 194 194 106
Width: 396
Flags: W
LayerCount: 2
Fore
SplineSet
0 0 m 1,0,-1
 0 256 l 1,1,-1
 64 256 l 1,2,-1
 64 448 l 1,3,-1
 128 448 l 1,4,-1
 128 256 l 1,5,-1
 192 256 l 1,6,-1
 192 448 l 1,7,-1
 256 448 l 1,8,-1
 256 256 l 1,9,-1
 320 256 l 1,10,-1
 320 0 l 1,11,-1
 256 0 l 1,12,-1
 256 192 l 1,13,-1
 64 192 l 1,14,-1
 64 0 l 1,15,-1
 0 0 l 1,0,-1
128 448 m 1,16,-1
 128 512 l 1,17,-1
 192 512 l 1,18,-1
 192 448 l 1,19,-1
 128 448 l 1,16,-1
64 576 m 1,20,-1
 64 640 l 1,21,-1
 128 640 l 1,22,-1
 128 576 l 1,23,-1
 64 576 l 1,20,-1
192 576 m 1,24,-1
 192 640 l 1,25,-1
 256 640 l 1,26,-1
 256 576 l 1,27,-1
 192 576 l 1,24,-1
128 640 m 1,28,-1
 128 704 l 1,29,-1
 192 704 l 1,30,-1
 192 640 l 1,31,-1
 128 640 l 1,28,-1
EndSplineSet
EndChar

StartChar: Adieresis
Encoding: 196 196 107
Width: 396
Flags: W
LayerCount: 2
Fore
SplineSet
0 0 m 1,0,-1
 0 256 l 1,1,-1
 64 256 l 1,2,-1
 64 448 l 1,3,-1
 128 448 l 1,4,-1
 128 256 l 1,5,-1
 192 256 l 1,6,-1
 192 448 l 1,7,-1
 256 448 l 1,8,-1
 256 256 l 1,9,-1
 320 256 l 1,10,-1
 320 0 l 1,11,-1
 256 0 l 1,12,-1
 256 192 l 1,13,-1
 64 192 l 1,14,-1
 64 0 l 1,15,-1
 0 0 l 1,0,-1
128 448 m 1,16,-1
 128 512 l 1,17,-1
 192 512 l 1,18,-1
 192 448 l 1,19,-1
 128 448 l 1,16,-1
64 576 m 1,20,-1
 64 640 l 1,21,-1
 128 640 l 1,22,-1
 128 576 l 1,23,-1
 64 576 l 1,20,-1
192 576 m 1,24,-1
 192 640 l 1,25,-1
 256 640 l 1,26,-1
 256 576 l 1,27,-1
 192 576 l 1,24,-1
EndSplineSet
EndChar

StartChar: Ccedilla
Encoding: 199 199 108
Width: 332
Flags: W
LayerCount: 2
Fore
SplineSet
64 -64 m 1,0,-1
 64 0 l 1,1,-1
 128 0 l 1,2,-1
 128 -64 l 1,3,-1
 64 -64 l 1,0,-1
128 0 m 1,4,-1
 128 64 l 1,5,-1
 64 64 l 1,6,-1
 64 128 l 1,7,-1
 256 128 l 1,8,-1
 256 64 l 1,9,-1
 192 64 l 1,10,-1
 192 0 l 1,11,-1
 128 0 l 1,4,-1
0 128 m 1,12,-1
 0 512 l 1,13,-1
 64 512 l 1,14,-1
 64 128 l 1,15,-1
 0 128 l 1,12,-1
64 512 m 1,16,-1
 64 576 l 1,17,-1
 256 576 l 1,18,-1
 256 512 l 1,19,-1
 64 512 l 1,16,-1
EndSplineSet
EndChar

StartChar: Egrave
Encoding: 200 200 109
Width: 332
Flags: W
LayerCount: 2
Fore
SplineSet
0 0 m 1,0,-1
 0 512 l 1,1,-1
 256 512 l 1,2,-1
 256 448 l 1,3,-1
 64 448 l 1,4,-1
 64 320 l 1,5,-1
 256 320 l 1,6,-1
 256 256 l 1,7,-1
 64 256 l 1,8,-1
 64 64 l 1,9,-1
 256 64 l 1,10,-1
 256 0 l 1,11,-1
 0 0 l 1,0,-1
128 576 m 1,12,-1
 128 640 l 1,13,-1
 192 640 l 1,14,-1
 192 576 l 1,15,-1
 128 576 l 1,12,-1
64 640 m 1,16,-1
 64 704 l 1,17,-1
 128 704 l 1,18,-1
 128 640 l 1,19,-1
 64 640 l 1,16,-1
EndSplineSet
EndChar

StartChar: Eacute
Encoding: 201 201 110
Width: 332
Flags: W
LayerCount: 2
Fore
SplineSet
0 0 m 1,0,-1
 0 512 l 1,1,-1
 256 512 l 1,2,-1
 256 448 l 1,3,-1
 64 448 l 1,4,-1
 64 320 l 1,5,-1
 256 320 l 1,6,-1
 256 256 l 1,7,-1
 64 256 l 1,8,-1
 64 64 l 1,9,-1
 256 64 l 1,10,-1
 256 0 l 1,11,-1
 0 0 l 1,0,-1
64 576 m 1,12,-1
 64 640 l 1,13,-1
 128 640 l 1,14,-1
 128 576 l 1,15,-1
 64 576 l 1,12,-1
128 640 m 1,16,-1
 128 704 l 1,17,-1
 192 704 l 1,18,-1
 192 640 l 1,19,-1
 128 640 l 1,16,-1
EndSplineSet
EndChar

StartChar: Ecircumflex
Encoding: 202 202 111
Width: 332
Flags: W
LayerCount: 2
Fore
SplineSet
0 0 m 1,0,-1
 0 512 l 1,1,-1
 256 512 l 1,2,-1
 256 448 l 1,3,-1
 64 448 l 1,4,-1
 64 320 l 1,5,-1
 256 320 l 1,6,-1
 256 256 l 1,7,-1
 64 256 l 1,8,-1
 64 64 l 1,9,-1
 256 64 l 1,10,-1
 256 0 l 1,11,-1
 0 0 l 1,0,-1
64 576 m 1,12,-1
 64 640 l 1,13,-1
 128 640 l 1,14,-1
 128 576 l 1,15,-1
 64 576 l 1,12,-1
192 576 m 1,16,-1
 192 640 l 1,17,-1
 256 640 l 1,18,-1
 256 576 l 1,19,-1
 192 576 l 1,16,-1
128 640 m 1,20,-1
 128 704 l 1,21,-1
 192 704 l 1,22,-1
 192 640 l 1,23,-1
 128 640 l 1,20,-1
EndSplineSet
EndChar

StartChar: Edieresis
Encoding: 203 203 112
Width: 332
Flags: W
LayerCount: 2
Fore
SplineSet
0 0 m 1,0,-1
 0 512 l 1,1,-1
 256 512 l 1,2,-1
 256 448 l 1,3,-1
 64 448 l 1,4,-1
 64 320 l 1,5,-1
 256 320 l 1,6,-1
 256 256 l 1,7,-1
 64 256 l 1,8,-1
 64 64 l 1,9,-1
 256 64 l 1,10,-1
 256 0 l 1,11,-1
 0 0 l 1,0,-1
64 576 m 1,12,-1
 64 640 l 1,13,-1
 128 640 l 1,14,-1
 128 576 l 1,15,-1
 64 576 l 1,12,-1
192 576 m 1,16,-1
 192 640 l 1,17,-1
 256 640 l 1,18,-1
 256 576 l 1,19,-1
 192 576 l 1,16,-1
EndSplineSet
EndChar

StartChar: Igrave
Encoding: 204 204 113
Width: 204
Flags: W
LayerCount: 2
Fore
SplineSet
64 0 m 1,0,-1
 64 512 l 1,1,-1
 128 512 l 1,2,-1
 128 0 l 1,3,-1
 64 0 l 1,0,-1
64 576 m 1,4,-1
 64 640 l 1,5,-1
 128 640 l 1,6,-1
 128 576 l 1,7,-1
 64 576 l 1,4,-1
0 640 m 1,8,-1
 0 704 l 1,9,-1
 64 704 l 1,10,-1
 64 640 l 1,11,-1
 0 640 l 1,8,-1
EndSplineSet
EndChar

StartChar: Iacute
Encoding: 205 205 114
Width: 204
Flags: W
LayerCount: 2
Fore
SplineSet
0 0 m 1,0,-1
 0 512 l 1,1,-1
 64 512 l 1,2,-1
 64 0 l 1,3,-1
 0 0 l 1,0,-1
0 576 m 1,4,-1
 0 640 l 1,5,-1
 64 640 l 1,6,-1
 64 576 l 1,7,-1
 0 576 l 1,4,-1
64 640 m 1,8,-1
 64 704 l 1,9,-1
 128 704 l 1,10,-1
 128 640 l 1,11,-1
 64 640 l 1,8,-1
EndSplineSet
EndChar

StartChar: Icircumflex
Encoding: 206 206 115
Width: 268
Flags: W
LayerCount: 2
Fore
SplineSet
64 0 m 1,0,-1
 64 512 l 1,1,-1
 128 512 l 1,2,-1
 128 0 l 1,3,-1
 64 0 l 1,0,-1
0 576 m 1,4,-1
 0 640 l 1,5,-1
 64 640 l 1,6,-1
 64 576 l 1,7,-1
 0 576 l 1,4,-1
128 576 m 1,8,-1
 128 640 l 1,9,-1
 192 640 l 1,10,-1
 192 576 l 1,11,-1
 128 576 l 1,8,-1
64 640 m 1,12,-1
 64 704 l 1,13,-1
 128 704 l 1,14,-1
 128 640 l 1,15,-1
 64 640 l 1,12,-1
EndSplineSet
EndChar

StartChar: Idieresis
Encoding: 207 207 116
Width: 268
Flags: W
LayerCount: 2
Fore
SplineSet
64 0 m 1,0,-1
 64 512 l 1,1,-1
 128 512 l 1,2,-1
 128 0 l 1,3,-1
 64 0 l 1,0,-1
0 576 m 1,4,-1
 0 640 l 1,5,-1
 64 640 l 1,6,-1
 64 576 l 1,7,-1
 0 576 l 1,4,-1
128 576 m 1,8,-1
 128 640 l 1,9,-1
 192 640 l 1,10,-1
 192 576 l 1,11,-1
 128 576 l 1,8,-1
EndSplineSet
EndChar

StartChar: Ntilde
Encoding: 209 209 117
Width: 396
Flags: W
LayerCount: 2
Fore
SplineSet
128 192 m 1,0,-1
 128 320 l 1,1,-1
 192 320 l 1,2,-1
 192 192 l 1,3,-1
 128 192 l 1,0,-1
0 0 m 1,4,-1
 0 512 l 1,5,-1
 64 512 l 1,6,-1
 64 448 l 1,7,-1
 128 448 l 1,8,-1
 128 320 l 1,9,-1
 64 320 l 1,10,-1
 64 0 l 1,11,-1
 0 0 l 1,4,-1
256 0 m 1,12,-1
 256 64 l 1,13,-1
 192 64 l 1,14,-1
 192 192 l 1,15,-1
 256 192 l 1,16,-1
 256 512 l 1,17,-1
 320 512 l 1,18,-1
 320 0 l 1,19,-1
 256 0 l 1,12,-1
EndSplineSet
EndChar

StartChar: Ograve
Encoding: 210 210 118
Width: 396
Flags: W
LayerCount: 2
Fore
SplineSet
64 0 m 1,0,-1
 64 64 l 1,1,-1
 256 64 l 1,2,-1
 256 0 l 1,3,-1
 64 0 l 1,0,-1
0 64 m 1,4,-1
 0 448 l 1,5,-1
 64 448 l 1,6,-1
 64 64 l 1,7,-1
 0 64 l 1,4,-1
256 64 m 1,8,-1
 256 448 l 1,9,-1
 320 448 l 1,10,-1
 320 64 l 1,11,-1
 256 64 l 1,8,-1
64 448 m 1,12,-1
 64 512 l 1,13,-1
 256 512 l 1,14,-1
 256 448 l 1,15,-1
 64 448 l 1,12,-1
128 576 m 1,16,-1
 128 640 l 1,17,-1
 192 640 l 1,18,-1
 192 576 l 1,19,-1
 128 576 l 1,16,-1
64 640 m 1,20,-1
 64 704 l 1,21,-1
 128 704 l 1,22,-1
 128 640 l 1,23,-1
 64 640 l 1,20,-1
EndSplineSet
EndChar

StartChar: Oacute
Encoding: 211 211 119
Width: 396
Flags: W
LayerCount: 2
Fore
SplineSet
64 0 m 1,0,-1
 64 64 l 1,1,-1
 256 64 l 1,2,-1
 256 0 l 1,3,-1
 64 0 l 1,0,-1
0 64 m 1,4,-1
 0 448 l 1,5,-1
 64 448 l 1,6,-1
 64 64 l 1,7,-1
 0 64 l 1,4,-1
256 64 m 1,8,-1
 256 448 l 1,9,-1
 320 448 l 1,10,-1
 320 64 l 1,11,-1
 256 64 l 1,8,-1
64 448 m 1,12,-1
 64 512 l 1,13,-1
 256 512 l 1,14,-1
 256 448 l 1,15,-1
 64 448 l 1,12,-1
128 576 m 1,16,-1
 128 640 l 1,17,-1
 192 640 l 1,18,-1
 192 576 l 1,19,-1
 128 576 l 1,16,-1
192 640 m 1,20,-1
 192 704 l 1,21,-1
 256 704 l 1,22,-1
 256 640 l 1,23,-1
 192 640 l 1,20,-1
EndSplineSet
EndChar

StartChar: Ocircumflex
Encoding: 212 212 120
Width: 396
Flags: W
LayerCount: 2
Fore
SplineSet
64 0 m 1,0,-1
 64 64 l 1,1,-1
 256 64 l 1,2,-1
 256 0 l 1,3,-1
 64 0 l 1,0,-1
0 64 m 1,4,-1
 0 448 l 1,5,-1
 64 448 l 1,6,-1
 64 64 l 1,7,-1
 0 64 l 1,4,-1
256 64 m 1,8,-1
 256 448 l 1,9,-1
 320 448 l 1,10,-1
 320 64 l 1,11,-1
 256 64 l 1,8,-1
64 448 m 1,12,-1
 64 512 l 1,13,-1
 256 512 l 1,14,-1
 256 448 l 1,15,-1
 64 448 l 1,12,-1
EndSplineSet
EndChar

StartChar: Odieresis
Encoding: 214 214 121
Width: 396
Flags: W
LayerCount: 2
Fore
SplineSet
64 0 m 1,0,-1
 64 64 l 1,1,-1
 256 64 l 1,2,-1
 256 0 l 1,3,-1
 64 0 l 1,0,-1
0 64 m 1,4,-1
 0 448 l 1,5,-1
 64 448 l 1,6,-1
 64 64 l 1,7,-1
 0 64 l 1,4,-1
256 64 m 1,8,-1
 256 448 l 1,9,-1
 320 448 l 1,10,-1
 320 64 l 1,11,-1
 256 64 l 1,8,-1
64 448 m 1,12,-1
 64 512 l 1,13,-1
 256 512 l 1,14,-1
 256 448 l 1,15,-1
 64 448 l 1,12,-1
64 576 m 1,16,-1
 64 640 l 1,17,-1
 128 640 l 1,18,-1
 128 576 l 1,19,-1
 64 576 l 1,16,-1
192 576 m 1,20,-1
 192 640 l 1,21,-1
 256 640 l 1,22,-1
 256 576 l 1,23,-1
 192 576 l 1,20,-1
EndSplineSet
EndChar

StartChar: multiply
Encoding: 215 215 122
Width: 396
Flags: W
LayerCount: 2
Fore
SplineSet
0 128 m 1,0,-1
 0 192 l 1,1,-1
 64 192 l 1,2,-1
 64 128 l 1,3,-1
 0 128 l 1,0,-1
256 128 m 1,4,-1
 256 192 l 1,5,-1
 320 192 l 1,6,-1
 320 128 l 1,7,-1
 256 128 l 1,4,-1
64 192 m 1,8,-1
 64 256 l 1,9,-1
 128 256 l 1,10,-1
 128 192 l 1,11,-1
 64 192 l 1,8,-1
192 192 m 1,12,-1
 192 256 l 1,13,-1
 256 256 l 1,14,-1
 256 192 l 1,15,-1
 192 192 l 1,12,-1
128 256 m 1,16,-1
 128 320 l 1,17,-1
 192 320 l 1,18,-1
 192 256 l 1,19,-1
 128 256 l 1,16,-1
64 320 m 1,20,-1
 64 384 l 1,21,-1
 128 384 l 1,22,-1
 128 320 l 1,23,-1
 64 320 l 1,20,-1
192 320 m 1,24,-1
 192 384 l 1,25,-1
 256 384 l 1,26,-1
 256 320 l 1,27,-1
 192 320 l 1,24,-1
0 384 m 1,28,-1
 0 448 l 1,29,-1
 64 448 l 1,30,-1
 64 384 l 1,31,-1
 0 384 l 1,28,-1
256 384 m 1,32,-1
 256 448 l 1,33,-1
 320 448 l 1,34,-1
 320 384 l 1,35,-1
 256 384 l 1,32,-1
EndSplineSet
EndChar

StartChar: Ugrave
Encoding: 217 217 123
Width: 396
Flags: W
LayerCount: 2
Fore
SplineSet
64 0 m 1,0,-1
 64 64 l 1,1,-1
 256 64 l 1,2,-1
 256 0 l 1,3,-1
 64 0 l 1,0,-1
0 64 m 1,4,-1
 0 512 l 1,5,-1
 64 512 l 1,6,-1
 64 64 l 1,7,-1
 0 64 l 1,4,-1
256 64 m 1,8,-1
 256 512 l 1,9,-1
 320 512 l 1,10,-1
 320 64 l 1,11,-1
 256 64 l 1,8,-1
128 576 m 1,12,-1
 128 640 l 1,13,-1
 192 640 l 1,14,-1
 192 576 l 1,15,-1
 128 576 l 1,12,-1
64 640 m 1,16,-1
 64 704 l 1,17,-1
 128 704 l 1,18,-1
 128 640 l 1,19,-1
 64 640 l 1,16,-1
EndSplineSet
EndChar

StartChar: Uacute
Encoding: 218 218 124
Width: 396
Flags: W
LayerCount: 2
Fore
SplineSet
64 0 m 1,0,-1
 64 64 l 1,1,-1
 256 64 l 1,2,-1
 256 0 l 1,3,-1
 64 0 l 1,0,-1
0 64 m 1,4,-1
 0 512 l 1,5,-1
 64 512 l 1,6,-1
 64 64 l 1,7,-1
 0 64 l 1,4,-1
256 64 m 1,8,-1
 256 512 l 1,9,-1
 320 512 l 1,10,-1
 320 64 l 1,11,-1
 256 64 l 1,8,-1
128 576 m 1,12,-1
 128 640 l 1,13,-1
 192 640 l 1,14,-1
 192 576 l 1,15,-1
 128 576 l 1,12,-1
192 640 m 1,16,-1
 192 704 l 1,17,-1
 256 704 l 1,18,-1
 256 640 l 1,19,-1
 192 640 l 1,16,-1
EndSplineSet
EndChar

StartChar: Ucircumflex
Encoding: 219 219 125
Width: 396
Flags: W
LayerCount: 2
Fore
SplineSet
64 0 m 1,0,-1
 64 64 l 1,1,-1
 256 64 l 1,2,-1
 256 0 l 1,3,-1
 64 0 l 1,0,-1
0 64 m 1,4,-1
 0 512 l 1,5,-1
 64 512 l 1,6,-1
 64 64 l 1,7,-1
 0 64 l 1,4,-1
256 64 m 1,8,-1
 256 512 l 1,9,-1
 320 512 l 1,10,-1
 320 64 l 1,11,-1
 256 64 l 1,8,-1
64 576 m 1,12,-1
 64 640 l 1,13,-1
 128 640 l 1,14,-1
 128 576 l 1,15,-1
 64 576 l 1,12,-1
192 576 m 1,16,-1
 192 640 l 1,17,-1
 256 640 l 1,18,-1
 256 576 l 1,19,-1
 192 576 l 1,16,-1
128 640 m 1,20,-1
 128 704 l 1,21,-1
 192 704 l 1,22,-1
 192 640 l 1,23,-1
 128 640 l 1,20,-1
EndSplineSet
EndChar

StartChar: Udieresis
Encoding: 220 220 126
Width: 396
Flags: W
LayerCount: 2
Fore
SplineSet
64 0 m 1,0,-1
 64 64 l 1,1,-1
 256 64 l 1,2,-1
 256 0 l 1,3,-1
 64 0 l 1,0,-1
0 64 m 1,4,-1
 0 512 l 1,5,-1
 64 512 l 1,6,-1
 64 64 l 1,7,-1
 0 64 l 1,4,-1
256 64 m 1,8,-1
 256 512 l 1,9,-1
 320 512 l 1,10,-1
 320 64 l 1,11,-1
 256 64 l 1,8,-1
64 576 m 1,12,-1
 64 640 l 1,13,-1
 128 640 l 1,14,-1
 128 576 l 1,15,-1
 64 576 l 1,12,-1
192 576 m 1,16,-1
 192 640 l 1,17,-1
 256 640 l 1,18,-1
 256 576 l 1,19,-1
 192 576 l 1,16,-1
EndSplineSet
EndChar

StartChar: germandbls
Encoding: 223 223 127
Width: 396
Flags: W
LayerCount: 2
Fore
SplineSet
128 64 m 1,0,-1
 128 128 l 1,1,-1
 256 128 l 1,2,-1
 256 64 l 1,3,-1
 128 64 l 1,0,-1
256 128 m 1,4,-1
 256 320 l 1,5,-1
 320 320 l 1,6,-1
 320 128 l 1,7,-1
 256 128 l 1,4,-1
128 320 m 1,8,-1
 128 384 l 1,9,-1
 256 384 l 1,10,-1
 256 320 l 1,11,-1
 128 320 l 1,8,-1
0 0 m 1,12,-1
 0 512 l 1,13,-1
 64 512 l 1,14,-1
 64 0 l 1,15,-1
 0 0 l 1,12,-1
256 384 m 1,16,-1
 256 512 l 1,17,-1
 320 512 l 1,18,-1
 320 384 l 1,19,-1
 256 384 l 1,16,-1
64 512 m 1,20,-1
 64 576 l 1,21,-1
 256 576 l 1,22,-1
 256 512 l 1,23,-1
 64 512 l 1,20,-1
EndSplineSet
EndChar

StartChar: agrave
Encoding: 224 224 128
Width: 396
Flags: W
LayerCount: 2
Fore
SplineSet
0 64 m 1,0,-1
 0 192 l 1,1,-1
 64 192 l 1,2,-1
 64 64 l 1,3,-1
 0 64 l 1,0,-1
64 0 m 1,4,-1
 64 64 l 1,5,-1
 256 64 l 1,6,-1
 256 192 l 1,7,-1
 64 192 l 1,8,-1
 64 256 l 1,9,-1
 256 256 l 1,10,-1
 256 320 l 1,11,-1
 320 320 l 1,12,-1
 320 0 l 1,13,-1
 64 0 l 1,4,-1
0 320 m 1,14,-1
 0 384 l 1,15,-1
 256 384 l 1,16,-1
 256 320 l 1,17,-1
 0 320 l 1,14,-1
192 448 m 1,18,-1
 192 512 l 1,19,-1
 256 512 l 1,20,-1
 256 448 l 1,21,-1
 192 448 l 1,18,-1
128 512 m 1,22,-1
 128 576 l 1,23,-1
 192 576 l 1,24,-1
 192 512 l 1,25,-1
 128 512 l 1,22,-1
EndSplineSet
EndChar

StartChar: aacute
Encoding: 225 225 129
Width: 396
Flags: W
LayerCount: 2
Fore
SplineSet
0 64 m 1,0,-1
 0 192 l 1,1,-1
 64 192 l 1,2,-1
 64 64 l 1,3,-1
 0 64 l 1,0,-1
64 0 m 1,4,-1
 64 64 l 1,5,-1
 256 64 l 1,6,-1
 256 192 l 1,7,-1
 64 192 l 1,8,-1
 64 256 l 1,9,-1
 256 256 l 1,10,-1
 256 320 l 1,11,-1
 320 320 l 1,12,-1
 320 0 l 1,13,-1
 64 0 l 1,4,-1
0 320 m 1,14,-1
 0 384 l 1,15,-1
 256 384 l 1,16,-1
 256 320 l 1,17,-1
 0 320 l 1,14,-1
128 448 m 1,18,-1
 128 512 l 1,19,-1
 192 512 l 1,20,-1
 192 448 l 1,21,-1
 128 448 l 1,18,-1
192 512 m 1,22,-1
 192 576 l 1,23,-1
 256 576 l 1,24,-1
 256 512 l 1,25,-1
 192 512 l 1,22,-1
EndSplineSet
EndChar

StartChar: acircumflex
Encoding: 226 226 130
Width: 396
Flags: W
LayerCount: 2
Fore
SplineSet
0 64 m 1,0,-1
 0 192 l 1,1,-1
 64 192 l 1,2,-1
 64 64 l 1,3,-1
 0 64 l 1,0,-1
64 0 m 1,4,-1
 64 64 l 1,5,-1
 256 64 l 1,6,-1
 256 192 l 1,7,-1
 64 192 l 1,8,-1
 64 256 l 1,9,-1
 256 256 l 1,10,-1
 256 320 l 1,11,-1
 320 320 l 1,12,-1
 320 0 l 1,13,-1
 64 0 l 1,4,-1
0 320 m 1,14,-1
 0 384 l 1,15,-1
 256 384 l 1,16,-1
 256 320 l 1,17,-1
 0 320 l 1,14,-1
64 448 m 1,18,-1
 64 512 l 1,19,-1
 128 512 l 1,20,-1
 128 448 l 1,21,-1
 64 448 l 1,18,-1
192 448 m 1,22,-1
 192 512 l 1,23,-1
 256 512 l 1,24,-1
 256 448 l 1,25,-1
 192 448 l 1,22,-1
128 512 m 1,26,-1
 128 576 l 1,27,-1
 192 576 l 1,28,-1
 192 512 l 1,29,-1
 128 512 l 1,26,-1
EndSplineSet
EndChar

StartChar: adieresis
Encoding: 228 228 131
Width: 396
Flags: W
LayerCount: 2
Fore
SplineSet
0 64 m 1,0,-1
 0 192 l 1,1,-1
 64 192 l 1,2,-1
 64 64 l 1,3,-1
 0 64 l 1,0,-1
64 0 m 1,4,-1
 64 64 l 1,5,-1
 256 64 l 1,6,-1
 256 192 l 1,7,-1
 64 192 l 1,8,-1
 64 256 l 1,9,-1
 256 256 l 1,10,-1
 256 320 l 1,11,-1
 320 320 l 1,12,-1
 320 0 l 1,13,-1
 64 0 l 1,4,-1
0 320 m 1,14,-1
 0 384 l 1,15,-1
 256 384 l 1,16,-1
 256 320 l 1,17,-1
 0 320 l 1,14,-1
64 448 m 1,18,-1
 64 512 l 1,19,-1
 128 512 l 1,20,-1
 128 448 l 1,21,-1
 64 448 l 1,18,-1
192 448 m 1,22,-1
 192 512 l 1,23,-1
 256 512 l 1,24,-1
 256 448 l 1,25,-1
 192 448 l 1,22,-1
EndSplineSet
EndChar

StartChar: egrave
Encoding: 232 232 132
Width: 396
Flags: W
LayerCount: 2
Fore
SplineSet
64 0 m 1,0,-1
 64 64 l 1,1,-1
 320 64 l 1,2,-1
 320 0 l 1,3,-1
 64 0 l 1,0,-1
0 64 m 1,4,-1
 0 320 l 1,5,-1
 64 320 l 1,6,-1
 64 256 l 1,7,-1
 256 256 l 1,8,-1
 256 320 l 1,9,-1
 320 320 l 1,10,-1
 320 192 l 1,11,-1
 64 192 l 1,12,-1
 64 64 l 1,13,-1
 0 64 l 1,4,-1
64 320 m 1,14,-1
 64 384 l 1,15,-1
 256 384 l 1,16,-1
 256 320 l 1,17,-1
 64 320 l 1,14,-1
128 448 m 1,18,-1
 128 512 l 1,19,-1
 192 512 l 1,20,-1
 192 448 l 1,21,-1
 128 448 l 1,18,-1
64 512 m 1,22,-1
 64 576 l 1,23,-1
 128 576 l 1,24,-1
 128 512 l 1,25,-1
 64 512 l 1,22,-1
EndSplineSet
EndChar

StartChar: eacute
Encoding: 233 233 133
Width: 396
Flags: W
LayerCount: 2
Fore
SplineSet
64 0 m 1,0,-1
 64 64 l 1,1,-1
 320 64 l 1,2,-1
 320 0 l 1,3,-1
 64 0 l 1,0,-1
0 64 m 1,4,-1
 0 320 l 1,5,-1
 64 320 l 1,6,-1
 64 256 l 1,7,-1
 256 256 l 1,8,-1
 256 320 l 1,9,-1
 320 320 l 1,10,-1
 320 192 l 1,11,-1
 64 192 l 1,12,-1
 64 64 l 1,13,-1
 0 64 l 1,4,-1
64 320 m 1,14,-1
 64 384 l 1,15,-1
 256 384 l 1,16,-1
 256 320 l 1,17,-1
 64 320 l 1,14,-1
128 448 m 1,18,-1
 128 512 l 1,19,-1
 192 512 l 1,20,-1
 192 448 l 1,21,-1
 128 448 l 1,18,-1
192 512 m 1,22,-1
 192 576 l 1,23,-1
 256 576 l 1,24,-1
 256 512 l 1,25,-1
 192 512 l 1,22,-1
EndSplineSet
EndChar

StartChar: ecircumflex
Encoding: 234 234 134
Width: 396
Flags: W
LayerCount: 2
Fore
SplineSet
64 0 m 1,0,-1
 64 64 l 1,1,-1
 320 64 l 1,2,-1
 320 0 l 1,3,-1
 64 0 l 1,0,-1
0 64 m 1,4,-1
 0 320 l 1,5,-1
 64 320 l 1,6,-1
 64 256 l 1,7,-1
 256 256 l 1,8,-1
 256 320 l 1,9,-1
 320 320 l 1,10,-1
 320 192 l 1,11,-1
 64 192 l 1,12,-1
 64 64 l 1,13,-1
 0 64 l 1,4,-1
64 320 m 1,14,-1
 64 384 l 1,15,-1
 256 384 l 1,16,-1
 256 320 l 1,17,-1
 64 320 l 1,14,-1
64 448 m 1,18,-1
 64 512 l 1,19,-1
 128 512 l 1,20,-1
 128 448 l 1,21,-1
 64 448 l 1,18,-1
192 448 m 1,22,-1
 192 512 l 1,23,-1
 256 512 l 1,24,-1
 256 448 l 1,25,-1
 192 448 l 1,22,-1
128 512 m 1,26,-1
 128 576 l 1,27,-1
 192 576 l 1,28,-1
 192 512 l 1,29,-1
 128 512 l 1,26,-1
EndSplineSet
EndChar

StartChar: edieresis
Encoding: 235 235 135
Width: 396
Flags: W
LayerCount: 2
Fore
SplineSet
64 0 m 1,0,-1
 64 64 l 1,1,-1
 320 64 l 1,2,-1
 320 0 l 1,3,-1
 64 0 l 1,0,-1
0 64 m 1,4,-1
 0 320 l 1,5,-1
 64 320 l 1,6,-1
 64 256 l 1,7,-1
 256 256 l 1,8,-1
 256 320 l 1,9,-1
 320 320 l 1,10,-1
 320 192 l 1,11,-1
 64 192 l 1,12,-1
 64 64 l 1,13,-1
 0 64 l 1,4,-1
64 320 m 1,14,-1
 64 384 l 1,15,-1
 256 384 l 1,16,-1
 256 320 l 1,17,-1
 64 320 l 1,14,-1
64 448 m 1,18,-1
 64 512 l 1,19,-1
 128 512 l 1,20,-1
 128 448 l 1,21,-1
 64 448 l 1,18,-1
192 448 m 1,22,-1
 192 512 l 1,23,-1
 256 512 l 1,24,-1
 256 448 l 1,25,-1
 192 448 l 1,22,-1
EndSplineSet
EndChar

StartChar: igrave
Encoding: 236 236 136
Width: 204
Flags: W
LayerCount: 2
Fore
SplineSet
64 0 m 1,0,-1
 64 384 l 1,1,-1
 128 384 l 1,2,-1
 128 0 l 1,3,-1
 64 0 l 1,0,-1
64 448 m 1,4,-1
 64 512 l 1,5,-1
 128 512 l 1,6,-1
 128 448 l 1,7,-1
 64 448 l 1,4,-1
0 512 m 1,8,-1
 0 576 l 1,9,-1
 64 576 l 1,10,-1
 64 512 l 1,11,-1
 0 512 l 1,8,-1
EndSplineSet
EndChar

StartChar: iacute
Encoding: 237 237 137
Width: 204
Flags: W
LayerCount: 2
Fore
SplineSet
0 0 m 1,0,-1
 0 384 l 1,1,-1
 64 384 l 1,2,-1
 64 0 l 1,3,-1
 0 0 l 1,0,-1
0 448 m 1,4,-1
 0 512 l 1,5,-1
 64 512 l 1,6,-1
 64 448 l 1,7,-1
 0 448 l 1,4,-1
64 512 m 1,8,-1
 64 576 l 1,9,-1
 128 576 l 1,10,-1
 128 512 l 1,11,-1
 64 512 l 1,8,-1
EndSplineSet
EndChar

StartChar: icircumflex
Encoding: 238 238 138
Width: 268
Flags: W
LayerCount: 2
Fore
SplineSet
64 0 m 1,0,-1
 64 384 l 1,1,-1
 128 384 l 1,2,-1
 128 0 l 1,3,-1
 64 0 l 1,0,-1
0 448 m 1,4,-1
 0 512 l 1,5,-1
 64 512 l 1,6,-1
 64 448 l 1,7,-1
 0 448 l 1,4,-1
128 448 m 1,8,-1
 128 512 l 1,9,-1
 192 512 l 1,10,-1
 192 448 l 1,11,-1
 128 448 l 1,8,-1
64 512 m 1,12,-1
 64 576 l 1,13,-1
 128 576 l 1,14,-1
 128 512 l 1,15,-1
 64 512 l 1,12,-1
EndSplineSet
EndChar

StartChar: idieresis
Encoding: 239 239 139
Width: 268
Flags: W
LayerCount: 2
Fore
SplineSet
64 0 m 1,0,-1
 64 384 l 1,1,-1
 128 384 l 1,2,-1
 128 0 l 1,3,-1
 64 0 l 1,0,-1
0 448 m 1,4,-1
 0 512 l 1,5,-1
 64 512 l 1,6,-1
 64 448 l 1,7,-1
 0 448 l 1,4,-1
128 448 m 1,8,-1
 128 512 l 1,9,-1
 192 512 l 1,10,-1
 192 448 l 1,11,-1
 128 448 l 1,8,-1
EndSplineSet
EndChar

StartChar: ntilde
Encoding: 241 241 140
Width: 396
Flags: W
LayerCount: 2
Fore
SplineSet
256 0 m 1,0,-1
 256 320 l 1,1,-1
 320 320 l 1,2,-1
 320 0 l 1,3,-1
 256 0 l 1,0,-1
0 0 m 1,4,-1
 0 384 l 1,5,-1
 256 384 l 1,6,-1
 256 320 l 1,7,-1
 64 320 l 1,8,-1
 64 0 l 1,9,-1
 0 0 l 1,4,-1
64 448 m 1,10,-1
 64 512 l 1,11,-1
 128 512 l 1,12,-1
 128 448 l 1,13,-1
 64 448 l 1,10,-1
192 448 m 1,14,-1
 192 512 l 1,15,-1
 256 512 l 1,16,-1
 256 448 l 1,17,-1
 192 448 l 1,14,-1
128 512 m 1,18,-1
 128 576 l 1,19,-1
 192 576 l 1,20,-1
 192 512 l 1,21,-1
 128 512 l 1,18,-1
256 512 m 1,22,-1
 256 576 l 1,23,-1
 320 576 l 1,24,-1
 320 512 l 1,25,-1
 256 512 l 1,22,-1
EndSplineSet
EndChar

StartChar: ograve
Encoding: 242 242 141
Width: 396
Flags: W
LayerCount: 2
Fore
SplineSet
64 0 m 1,0,-1
 64 64 l 1,1,-1
 256 64 l 1,2,-1
 256 0 l 1,3,-1
 64 0 l 1,0,-1
0 64 m 1,4,-1
 0 320 l 1,5,-1
 64 320 l 1,6,-1
 64 64 l 1,7,-1
 0 64 l 1,4,-1
256 64 m 1,8,-1
 256 320 l 1,9,-1
 320 320 l 1,10,-1
 320 64 l 1,11,-1
 256 64 l 1,8,-1
64 320 m 1,12,-1
 64 384 l 1,13,-1
 256 384 l 1,14,-1
 256 320 l 1,15,-1
 64 320 l 1,12,-1
128 448 m 1,16,-1
 128 512 l 1,17,-1
 192 512 l 1,18,-1
 192 448 l 1,19,-1
 128 448 l 1,16,-1
64 512 m 1,20,-1
 64 576 l 1,21,-1
 128 576 l 1,22,-1
 128 512 l 1,23,-1
 64 512 l 1,20,-1
EndSplineSet
EndChar

StartChar: oacute
Encoding: 243 243 142
Width: 396
Flags: W
LayerCount: 2
Fore
SplineSet
64 0 m 1,0,-1
 64 64 l 1,1,-1
 256 64 l 1,2,-1
 256 0 l 1,3,-1
 64 0 l 1,0,-1
0 64 m 1,4,-1
 0 320 l 1,5,-1
 64 320 l 1,6,-1
 64 64 l 1,7,-1
 0 64 l 1,4,-1
256 64 m 1,8,-1
 256 320 l 1,9,-1
 320 320 l 1,10,-1
 320 64 l 1,11,-1
 256 64 l 1,8,-1
64 320 m 1,12,-1
 64 384 l 1,13,-1
 256 384 l 1,14,-1
 256 320 l 1,15,-1
 64 320 l 1,12,-1
128 448 m 1,16,-1
 128 512 l 1,17,-1
 192 512 l 1,18,-1
 192 448 l 1,19,-1
 128 448 l 1,16,-1
192 512 m 1,20,-1
 192 576 l 1,21,-1
 256 576 l 1,22,-1
 256 512 l 1,23,-1
 192 512 l 1,20,-1
EndSplineSet
EndChar

StartChar: ocircumflex
Encoding: 244 244 143
Width: 396
Flags: W
LayerCount: 2
Fore
SplineSet
64 0 m 1,0,-1
 64 64 l 1,1,-1
 256 64 l 1,2,-1
 256 0 l 1,3,-1
 64 0 l 1,0,-1
0 64 m 1,4,-1
 0 320 l 1,5,-1
 64 320 l 1,6,-1
 64 64 l 1,7,-1
 0 64 l 1,4,-1
256 64 m 1,8,-1
 256 320 l 1,9,-1
 320 320 l 1,10,-1
 320 64 l 1,11,-1
 256 64 l 1,8,-1
64 320 m 1,12,-1
 64 384 l 1,13,-1
 256 384 l 1,14,-1
 256 320 l 1,15,-1
 64 320 l 1,12,-1
64 448 m 1,16,-1
 64 512 l 1,17,-1
 128 512 l 1,18,-1
 128 448 l 1,19,-1
 64 448 l 1,16,-1
192 448 m 1,20,-1
 192 512 l 1,21,-1
 256 512 l 1,22,-1
 256 448 l 1,23,-1
 192 448 l 1,20,-1
128 512 m 1,24,-1
 128 576 l 1,25,-1
 192 576 l 1,26,-1
 192 512 l 1,27,-1
 128 512 l 1,24,-1
EndSplineSet
EndChar

StartChar: odieresis
Encoding: 246 246 144
Width: 396
Flags: W
LayerCount: 2
Fore
SplineSet
64 0 m 1,0,-1
 64 64 l 1,1,-1
 256 64 l 1,2,-1
 256 0 l 1,3,-1
 64 0 l 1,0,-1
0 64 m 1,4,-1
 0 320 l 1,5,-1
 64 320 l 1,6,-1
 64 64 l 1,7,-1
 0 64 l 1,4,-1
256 64 m 1,8,-1
 256 320 l 1,9,-1
 320 320 l 1,10,-1
 320 64 l 1,11,-1
 256 64 l 1,8,-1
64 320 m 1,12,-1
 64 384 l 1,13,-1
 256 384 l 1,14,-1
 256 320 l 1,15,-1
 64 320 l 1,12,-1
64 448 m 1,16,-1
 64 512 l 1,17,-1
 128 512 l 1,18,-1
 128 448 l 1,19,-1
 64 448 l 1,16,-1
192 448 m 1,20,-1
 192 512 l 1,21,-1
 256 512 l 1,22,-1
 256 448 l 1,23,-1
 192 448 l 1,20,-1
EndSplineSet
EndChar

StartChar: divide
Encoding: 247 247 145
Width: 396
Flags: W
LayerCount: 2
Fore
SplineSet
128 128 m 1,0,-1
 128 192 l 1,1,-1
 192 192 l 1,2,-1
 192 128 l 1,3,-1
 128 128 l 1,0,-1
0 256 m 1,4,-1
 0 320 l 1,5,-1
 320 320 l 1,6,-1
 320 256 l 1,7,-1
 0 256 l 1,4,-1
128 384 m 1,8,-1
 128 448 l 1,9,-1
 192 448 l 1,10,-1
 192 384 l 1,11,-1
 128 384 l 1,8,-1
EndSplineSet
EndChar

StartChar: ugrave
Encoding: 249 249 146
Width: 396
Flags: W
LayerCount: 2
Fore
SplineSet
0 64 m 1,0,-1
 0 384 l 1,1,-1
 64 384 l 1,2,-1
 64 64 l 1,3,-1
 0 64 l 1,0,-1
64 0 m 1,4,-1
 64 64 l 1,5,-1
 256 64 l 1,6,-1
 256 384 l 1,7,-1
 320 384 l 1,8,-1
 320 0 l 1,9,-1
 64 0 l 1,4,-1
128 384 m 1,10,-1
 128 448 l 1,11,-1
 192 448 l 1,12,-1
 192 384 l 1,13,-1
 128 384 l 1,10,-1
64 448 m 1,14,-1
 64 512 l 1,15,-1
 128 512 l 1,16,-1
 128 448 l 1,17,-1
 64 448 l 1,14,-1
EndSplineSet
EndChar

StartChar: uacute
Encoding: 250 250 147
Width: 396
Flags: W
LayerCount: 2
Fore
SplineSet
0 64 m 1,0,-1
 0 384 l 1,1,-1
 64 384 l 1,2,-1
 64 64 l 1,3,-1
 0 64 l 1,0,-1
64 0 m 1,4,-1
 64 64 l 1,5,-1
 256 64 l 1,6,-1
 256 384 l 1,7,-1
 320 384 l 1,8,-1
 320 0 l 1,9,-1
 64 0 l 1,4,-1
128 384 m 1,10,-1
 128 448 l 1,11,-1
 192 448 l 1,12,-1
 192 384 l 1,13,-1
 128 384 l 1,10,-1
192 448 m 1,14,-1
 192 512 l 1,15,-1
 256 512 l 1,16,-1
 256 448 l 1,17,-1
 192 448 l 1,14,-1
EndSplineSet
EndChar

StartChar: ucircumflex
Encoding: 251 251 148
Width: 396
Flags: W
LayerCount: 2
Fore
SplineSet
0 64 m 1,0,-1
 0 384 l 1,1,-1
 64 384 l 1,2,-1
 64 64 l 1,3,-1
 0 64 l 1,0,-1
64 0 m 1,4,-1
 64 64 l 1,5,-1
 256 64 l 1,6,-1
 256 384 l 1,7,-1
 320 384 l 1,8,-1
 320 0 l 1,9,-1
 64 0 l 1,4,-1
64 448 m 1,10,-1
 64 512 l 1,11,-1
 128 512 l 1,12,-1
 128 448 l 1,13,-1
 64 448 l 1,10,-1
192 448 m 1,14,-1
 192 512 l 1,15,-1
 256 512 l 1,16,-1
 256 448 l 1,17,-1
 192 448 l 1,14,-1
128 512 m 1,18,-1
 128 576 l 1,19,-1
 192 576 l 1,20,-1
 192 512 l 1,21,-1
 128 512 l 1,18,-1
EndSplineSet
EndChar

StartChar: udieresis
Encoding: 252 252 149
Width: 396
Flags: W
LayerCount: 2
Fore
SplineSet
0 64 m 1,0,-1
 0 384 l 1,1,-1
 64 384 l 1,2,-1
 64 64 l 1,3,-1
 0 64 l 1,0,-1
64 0 m 1,4,-1
 64 64 l 1,5,-1
 256 64 l 1,6,-1
 256 384 l 1,7,-1
 320 384 l 1,8,-1
 320 0 l 1,9,-1
 64 0 l 1,4,-1
64 448 m 1,10,-1
 64 512 l 1,11,-1
 128 512 l 1,12,-1
 128 448 l 1,13,-1
 64 448 l 1,10,-1
192 448 m 1,14,-1
 192 512 l 1,15,-1
 256 512 l 1,16,-1
 256 448 l 1,17,-1
 192 448 l 1,14,-1
EndSplineSet
EndChar

StartChar: quoteleft
Encoding: 8216 8216 150
Width: 204
Flags: W
LayerCount: 2
Fore
SplineSet
0 320 m 1,0,-1
 0 384 l 1,1,-1
 64 384 l 1,2,-1
 64 320 l 1,3,-1
 0 320 l 1,0,-1
64 384 m 1,4,-1
 64 448 l 1,5,-1
 128 448 l 1,6,-1
 128 384 l 1,7,-1
 64 384 l 1,4,-1
EndSplineSet
EndChar

StartChar: quoteright
Encoding: 8217 8217 151
Width: 204
Flags: W
LayerCount: 2
Fore
SplineSet
0 320 m 1,0,-1
 0 384 l 1,1,-1
 64 384 l 1,2,-1
 64 320 l 1,3,-1
 0 320 l 1,0,-1
64 384 m 1,4,-1
 64 448 l 1,5,-1
 128 448 l 1,6,-1
 128 384 l 1,7,-1
 64 384 l 1,4,-1
EndSplineSet
EndChar

StartChar: quotedblleft
Encoding: 8220 8220 152
Width: 332
Flags: W
LayerCount: 2
Fore
SplineSet
256 320 m 5,0,-1
 256 384 l 5,1,-1
 192 384 l 5,2,-1
 192 320 l 5,3,-1
 256 320 l 5,0,-1
128 320 m 5,4,-1
 128 384 l 5,5,-1
 64 384 l 5,6,-1
 64 320 l 5,7,-1
 128 320 l 5,4,-1
192 384 m 5,8,-1
 192 448 l 5,9,-1
 128 448 l 5,10,-1
 128 384 l 5,11,-1
 192 384 l 5,8,-1
64 384 m 5,12,-1
 64 448 l 5,13,-1
 0 448 l 5,14,-1
 0 384 l 5,15,-1
 64 384 l 5,12,-1
EndSplineSet
EndChar

StartChar: quotedblright
Encoding: 8221 8221 153
Width: 332
Flags: W
LayerCount: 2
Fore
SplineSet
0 320 m 5,0,-1
 0 384 l 5,1,-1
 64 384 l 5,2,-1
 64 320 l 5,3,-1
 0 320 l 5,0,-1
128 320 m 5,4,-1
 128 384 l 5,5,-1
 192 384 l 5,6,-1
 192 320 l 5,7,-1
 128 320 l 5,4,-1
64 384 m 5,8,-1
 64 448 l 5,9,-1
 128 448 l 5,10,-1
 128 384 l 5,11,-1
 64 384 l 5,8,-1
192 384 m 5,12,-1
 192 448 l 5,13,-1
 256 448 l 5,14,-1
 256 384 l 5,15,-1
 192 384 l 5,12,-1
EndSplineSet
EndChar

StartChar: ellipsis
Encoding: 8230 8230 154
Width: 396
Flags: W
LayerCount: 2
Fore
SplineSet
0 0 m 1,0,-1
 0 64 l 1,1,-1
 64 64 l 1,2,-1
 64 0 l 1,3,-1
 0 0 l 1,0,-1
128 0 m 1,4,-1
 128 64 l 1,5,-1
 192 64 l 1,6,-1
 192 0 l 1,7,-1
 128 0 l 1,4,-1
256 0 m 1,8,-1
 256 64 l 1,9,-1
 320 64 l 1,10,-1
 320 0 l 1,11,-1
 256 0 l 1,8,-1
EndSplineSet
EndChar

StartChar: Euro
Encoding: 8364 8364 155
Width: 460
Flags: W
LayerCount: 2
Fore
SplineSet
192 0 m 1,0,-1
 192 64 l 1,1,-1
 320 64 l 1,2,-1
 320 0 l 1,3,-1
 192 0 l 1,0,-1
128 64 m 1,4,-1
 128 128 l 1,5,-1
 192 128 l 1,6,-1
 192 64 l 1,7,-1
 128 64 l 1,4,-1
320 64 m 1,8,-1
 320 128 l 1,9,-1
 384 128 l 1,10,-1
 384 64 l 1,11,-1
 320 64 l 1,8,-1
64 128 m 1,12,-1
 64 192 l 1,13,-1
 0 192 l 1,14,-1
 0 256 l 1,15,-1
 64 256 l 1,16,-1
 64 320 l 1,17,-1
 0 320 l 1,18,-1
 0 384 l 1,19,-1
 64 384 l 1,20,-1
 64 448 l 1,21,-1
 128 448 l 1,22,-1
 128 384 l 1,23,-1
 256 384 l 1,24,-1
 256 320 l 1,25,-1
 128 320 l 1,26,-1
 128 256 l 1,27,-1
 256 256 l 1,28,-1
 256 192 l 1,29,-1
 128 192 l 1,30,-1
 128 128 l 1,31,-1
 64 128 l 1,12,-1
128 448 m 1,32,-1
 128 512 l 1,33,-1
 192 512 l 1,34,-1
 192 448 l 1,35,-1
 128 448 l 1,32,-1
320 448 m 1,36,-1
 320 512 l 1,37,-1
 384 512 l 1,38,-1
 384 448 l 1,39,-1
 320 448 l 1,36,-1
192 512 m 1,40,-1
 192 576 l 1,41,-1
 320 576 l 1,42,-1
 320 512 l 1,43,-1
 192 512 l 1,40,-1
EndSplineSet
EndChar

StartChar: trademark
Encoding: 8482 8482 156
Width: 652
Flags: W
LayerCount: 2
Fore
SplineSet
384 384 m 1,0,-1
 384 448 l 1,1,-1
 448 448 l 1,2,-1
 448 384 l 1,3,-1
 384 384 l 1,0,-1
64 320 m 1,4,-1
 64 512 l 1,5,-1
 0 512 l 1,6,-1
 0 576 l 1,7,-1
 192 576 l 1,8,-1
 192 512 l 1,9,-1
 128 512 l 1,10,-1
 128 320 l 1,11,-1
 64 320 l 1,4,-1
256 320 m 1,12,-1
 256 576 l 1,13,-1
 320 576 l 1,14,-1
 320 512 l 1,15,-1
 384 512 l 1,16,-1
 384 448 l 1,17,-1
 320 448 l 1,18,-1
 320 320 l 1,19,-1
 256 320 l 1,12,-1
512 320 m 1,20,-1
 512 448 l 1,21,-1
 448 448 l 1,22,-1
 448 512 l 1,23,-1
 512 512 l 1,24,-1
 512 576 l 1,25,-1
 576 576 l 1,26,-1
 576 320 l 1,27,-1
 512 320 l 1,20,-1
EndSplineSet
EndChar

StartChar: omacron
Encoding: 333 333 157
Width: 396
Flags: W
LayerCount: 2
Fore
SplineSet
64 0 m 1,0,-1
 64 64 l 1,1,-1
 256 64 l 1,2,-1
 256 0 l 1,3,-1
 64 0 l 1,0,-1
0 64 m 1,4,-1
 0 320 l 1,5,-1
 64 320 l 1,6,-1
 64 64 l 1,7,-1
 0 64 l 1,4,-1
256 64 m 1,8,-1
 256 320 l 1,9,-1
 320 320 l 1,10,-1
 320 64 l 1,11,-1
 256 64 l 1,8,-1
64 320 m 1,12,-1
 64 384 l 1,13,-1
 256 384 l 1,14,-1
 256 320 l 1,15,-1
 64 320 l 1,12,-1
64 448 m 1,16,-1
 64 512 l 1,17,-1
 256 512 l 1,18,-1
 256 448 l 5,19,-1
 64 448 l 1,16,-1
EndSplineSet
EndChar

StartChar: endash
Encoding: 8211 8211 158
Width: 512
Flags: W
LayerCount: 2
Fore
SplineSet
0 192 m 1,0,-1
 0 256 l 1,1,-1
 448 256 l 1,2,-1
 448 192 l 257,3,-1
 0 192 l 1,0,-1
EndSplineSet
EndChar

StartChar: emdash
Encoding: 8212 8212 159
Width: 704
Flags: WO
LayerCount: 2
Fore
SplineSet
0 192 m 1,0,-1
 0 256 l 1,1,-1
 640 256 l 1,2,-1
 640 192 l 1,3,-1
 0 192 l 1,0,-1
EndSplineSet
EndChar

StartChar: guillemotleft
Encoding: 171 171 160
Width: 468
Flags: W
LayerCount: 2
Fore
SplineSet
320 128 m 1,0,-1
 320 192 l 1,1,-1
 384 192 l 1,2,-1
 384 128 l 1,3,-1
 320 128 l 1,0,-1
256 192 m 1,4,-1
 256 256 l 1,5,-1
 320 256 l 1,6,-1
 320 192 l 1,7,-1
 256 192 l 1,4,-1
192 256 m 1,8,-1
 192 320 l 1,9,-1
 256 320 l 1,10,-1
 256 256 l 1,11,-1
 192 256 l 1,8,-1
256 320 m 1,12,-1
 256 384 l 1,13,-1
 320 384 l 1,14,-1
 320 320 l 1,15,-1
 256 320 l 1,12,-1
320 384 m 1,16,-1
 320 448 l 1,17,-1
 384 448 l 1,18,-1
 384 384 l 1,19,-1
 320 384 l 1,16,-1
128 128 m 1,20,-1
 128 192 l 1,21,-1
 192 192 l 1,22,-1
 192 128 l 1,23,-1
 128 128 l 1,20,-1
64 192 m 1,24,-1
 64 256 l 1,25,-1
 128 256 l 1,26,-1
 128 192 l 1,27,-1
 64 192 l 1,24,-1
0 256 m 1,28,-1
 0 320 l 1,29,-1
 64 320 l 1,30,-1
 64 256 l 1,31,-1
 0 256 l 1,28,-1
64 320 m 1,32,-1
 64 384 l 1,33,-1
 128 384 l 1,34,-1
 128 320 l 1,35,-1
 64 320 l 1,32,-1
128 384 m 1,36,-1
 128 448 l 1,37,-1
 192 448 l 1,38,-1
 192 384 l 1,39,-1
 128 384 l 1,36,-1
EndSplineSet
EndChar

StartChar: guillemotright
Encoding: 187 187 161
Width: 468
Flags: WO
LayerCount: 2
Fore
SplineSet
64 128 m 5,0,-1
 64 192 l 5,1,-1
 0 192 l 5,2,-1
 0 128 l 5,3,-1
 64 128 l 5,0,-1
128 192 m 5,4,-1
 128 256 l 5,5,-1
 64 256 l 5,6,-1
 64 192 l 5,7,-1
 128 192 l 5,4,-1
192 256 m 5,8,-1
 192 320 l 5,9,-1
 128 320 l 5,10,-1
 128 256 l 5,11,-1
 192 256 l 5,8,-1
128 320 m 5,12,-1
 128 384 l 5,13,-1
 64 384 l 5,14,-1
 64 320 l 5,15,-1
 128 320 l 5,12,-1
64 384 m 5,16,-1
 64 448 l 5,17,-1
 0 448 l 5,18,-1
 0 384 l 5,19,-1
 64 384 l 5,16,-1
256 128 m 5,20,-1
 256 192 l 5,21,-1
 192 192 l 5,22,-1
 192 128 l 5,23,-1
 256 128 l 5,20,-1
320 192 m 5,24,-1
 320 256 l 5,25,-1
 256 256 l 5,26,-1
 256 192 l 5,27,-1
 320 192 l 5,24,-1
384 256 m 5,28,-1
 384 320 l 5,29,-1
 320 320 l 5,30,-1
 320 256 l 5,31,-1
 384 256 l 5,28,-1
320 320 m 5,32,-1
 320 384 l 5,33,-1
 256 384 l 5,34,-1
 256 320 l 5,35,-1
 320 320 l 5,32,-1
256 384 m 5,36,-1
 256 448 l 5,37,-1
 192 448 l 5,38,-1
 192 384 l 5,39,-1
 256 384 l 5,36,-1
EndSplineSet
EndChar
